<?xml version="1.0" encoding="utf-8"?>
<!-- Generator: Adobe Illustrator 16.2.0, SVG Export Plug-In . SVG Version: 6.00 Build 0)  -->
<!DOCTYPE svg PUBLIC "-//W3C//DTD SVG 1.1//EN" "http://www.w3.org/Graphics/SVG/1.1/DTD/svg11.dtd">
<svg version="1.1" id="Layer_1" xmlns="http://www.w3.org/2000/svg" xmlns:xlink="http://www.w3.org/1999/xlink" x="0px" y="0px"
	 width="576px" height="576px" viewBox="0 0 576 576" enable-background="new 0 0 576 576" xml:space="preserve">
<g>
	<path fill="#915C93" d="M341.985,74.877c12.512-13.775,26.718-27.118,43.979-35.105c4.199-1.939,8.601-3.435,13.11-4.409
		c0.504-0.79,1.037-1.579,1.638-2.365c-0.908-0.457-1.824-0.854-2.74-1.212c-13.141,2.983-25.146,10.175-35.653,18.484
		c-13.313,10.523-24.712,23.191-35.347,36.232c1.031,0.749,2.04,1.534,3.035,2.347C333.887,84.106,337.853,79.429,341.985,74.877z"
		/>
	<path fill="#915C93" d="M376.068,107.153c14.287-2.592,26.826-9.396,39.515-15.908c1.368-2.069,2.883-4.012,4.541-5.762
		c-0.145-0.086-0.286-0.178-0.425-0.265c-14.476,7.201-28.446,15.553-44.608,18.481c-9.366,1.695-18.926,3.513-28.248,6.021
		c0.553,1.087,1.078,2.182,1.57,3.289C357.536,110.579,366.892,108.816,376.068,107.153z"/>
	<path fill="#915C93" d="M380.917,134.819c10.124,3.266,19.278,9.168,29.451,12.305c4.984,1.536,10.1,2.11,15.252,1.598
		c0.996-0.097,1.981-0.238,2.963-0.402c1.097-0.788,2.083-1.72,2.929-2.829c-1.069-0.341-2.087-0.716-3.071-1.112
		c-0.519,0.099-1.038,0.2-1.56,0.283c-5.263,0.82-10.467,0.208-15.592-1.303c-10.191-3.011-19.365-8.932-29.453-12.308
		c-9.303-3.116-19.409-4.376-29.158-4.739c0.264,1.296,0.474,2.599,0.658,3.903C362.616,130.569,372.062,131.958,380.917,134.819z"
		/>
	<path fill="#915C93" d="M235.623,75.879c-12.605-13.69-26.9-26.936-44.216-34.806c-4.211-1.911-8.624-3.377-13.139-4.32
		c-0.511-0.787-1.049-1.573-1.654-2.354c0.905-0.463,1.817-0.866,2.732-1.23c13.16,2.894,25.213,10.005,35.775,18.241
		c13.386,10.433,24.871,23.024,35.594,35.993c-1.026,0.756-2.031,1.547-3.021,2.367C243.785,85.053,239.787,80.404,235.623,75.879z"
		/>
	<path fill="#915C93" d="M201.759,108.385c-14.304-2.496-26.89-9.214-39.619-15.639c-1.383-2.06-2.911-3.993-4.582-5.731
		c0.144-0.087,0.284-0.18,0.423-0.267c14.524,7.103,28.55,15.36,44.732,18.178c9.378,1.632,18.947,3.385,28.289,5.83
		c-0.548,1.091-1.064,2.19-1.548,3.3C220.314,111.686,210.948,109.987,201.759,108.385z"/>
	<path fill="#915C93" d="M197.099,136.084c-10.101,3.334-19.215,9.298-29.366,12.504c-4.976,1.57-10.086,2.179-15.243,1.701
		c-0.995-0.089-1.982-0.224-2.967-0.382c-1.102-0.78-2.091-1.706-2.944-2.809c1.065-0.348,2.08-0.73,3.063-1.132
		c0.518,0.095,1.039,0.193,1.562,0.271c5.267,0.785,10.468,0.137,15.583-1.409c10.169-3.08,19.303-9.063,29.367-12.507
		c9.283-3.179,19.379-4.508,29.127-4.937c-0.254,1.298-0.457,2.602-0.633,3.908C215.37,131.71,205.935,133.163,197.099,136.084z"/>
</g>
<g>
	<path fill="#E2B7D5" d="M146.389,311.818c-10.75-8.99-10.851-35.562-10.854-47.543c8.721-5.228,20.846-16.502,18.831-26.596
		c-3.843-19.213-16.91,10.759-21.522,15.372c-2.309-5.379,0.77-29.977-8.453-29.977c-13.071,0-2.312,27.671,0,32.278
		c-6.92-2.301-39.195-20.746-29.209,3.079c4.201,9.794,19.239,8.755,28.856,8.493c0.34,20.655,3.639,53.958,24.808,58.873
		c-0.657-2.071-1.229-4.146-1.688-6.22C146.612,316.676,146.373,314.111,146.389,311.818z"/>
	<path fill="#E2B7D5" d="M454.255,255.352c2.31-4.607,13.07-32.278,0-32.278c-9.223,0-6.144,24.598-8.453,29.977
		c-4.613-4.612-17.678-34.584-21.521-15.372c-2.015,10.094,10.108,21.367,18.831,26.596c-0.006,11.637-0.1,37.038-9.958,46.726
		c-1.345,5.055-3.311,10.216-5.433,15.176c23.034-3.164,26.536-37.944,26.887-59.253c9.618,0.263,24.656,1.303,28.855-8.493
		C493.45,234.605,461.174,253.05,454.255,255.352z"/>
	<path fill="#E2B7D5" d="M381.836,131.051c10.088,3.376,19.262,9.297,29.453,12.308c5.125,1.511,10.329,2.124,15.592,1.303
		c0.521-0.083,1.041-0.184,1.56-0.283c-24.559-9.843-24.102-36.1-12.857-53.134c-12.688,6.511-25.228,13.315-39.515,15.908
		c-9.177,1.664-18.532,3.426-27.655,5.858c1.911,4.318,3.34,8.776,4.265,13.301C362.427,126.675,372.533,127.935,381.836,131.051z"
		/>
	<path fill="#E2B7D5" d="M362.319,50.27c10.508-8.309,22.513-15.501,35.653-18.484C370,20.849,337.858,54.857,318.611,81.361
		c2.894,1.489,5.688,3.206,8.361,5.141C337.607,73.461,349.006,60.792,362.319,50.27z"/>
	<path fill="#E2B7D5" d="M346.843,109.722c9.322-2.509,18.882-4.326,28.248-6.021c16.162-2.928,30.133-11.281,44.608-18.481
		c-18.943-11.523-32.401-31.397-20.624-49.856c-4.51,0.974-8.911,2.47-13.11,4.409c-17.262,7.988-31.468,21.33-43.979,35.105
		c-4.133,4.552-8.099,9.229-11.978,13.972c3.871,3.169,7.446,6.817,10.611,10.968C343.032,102.981,345.091,106.301,346.843,109.722z
		"/>
	<path fill="#E2B7D5" d="M428.583,148.321c-0.981,0.164-1.967,0.305-2.963,0.402c-5.152,0.512-10.268-0.062-15.252-1.598
		c-10.173-3.137-19.327-9.04-29.451-12.305c-8.855-2.862-18.301-4.25-27.581-4.604c0.528,3.731,0.734,7.486,0.615,11.228
		C380.739,143.508,414.484,158.448,428.583,148.321z"/>
	<path fill="#E2B7D5" d="M196.153,132.322c-10.063,3.444-19.198,9.427-29.367,12.507c-5.115,1.546-10.316,2.193-15.583,1.409
		c-0.523-0.079-1.043-0.177-1.562-0.271c24.49-10.009,23.855-36.263,12.498-53.221c12.729,6.425,25.315,13.144,39.619,15.639
		c9.188,1.602,18.555,3.3,27.695,5.671c-1.882,4.331-3.281,8.797-4.174,13.329C215.532,127.814,205.436,129.143,196.153,132.322z"/>
	<path fill="#E2B7D5" d="M215.121,51.41c-10.562-8.236-22.615-15.348-35.775-18.241c27.896-11.126,60.266,22.663,79.693,49.036
		c-2.882,1.509-5.666,3.246-8.325,5.198C239.992,74.434,228.507,61.843,215.121,51.41z"/>
	<path fill="#E2B7D5" d="M231.002,110.756c-9.341-2.445-18.91-4.198-28.289-5.83c-16.183-2.817-30.208-11.075-44.732-18.178
		c18.865-11.651,32.189-31.617,20.286-49.995c4.515,0.943,8.928,2.409,13.139,4.32c17.316,7.87,31.611,21.116,44.216,34.806
		c4.164,4.525,8.162,9.174,12.071,13.89c-3.848,3.196-7.398,6.868-10.535,11.041C234.768,103.99,232.731,107.324,231.002,110.756z"
		/>
	<path fill="#E2B7D5" d="M149.522,149.908c0.985,0.158,1.972,0.292,2.967,0.382c5.157,0.478,10.267-0.131,15.243-1.701
		c10.15-3.207,19.265-9.17,29.366-12.504c8.836-2.922,18.271-4.375,27.549-4.792c-0.502,3.734-0.684,7.491-0.54,11.232
		C197.335,144.771,163.693,159.939,149.522,149.908z"/>
	<path fill="#E2B7D5" d="M228.251,415.532c0.485,18.368,1.983,40.909,2.398,44.795c0,0-17.277-1.819-18.058-1.9
		c-21.784-2.277-43.65-1.804-64.516,5.51c-6.043,2.119-23.424,7.286-20.891,16.457c1.348,4.862,28.636,12.272,30.18,9.438
		c-0.002,0-5.65,10.356-5.712,10.471c-9.608,17.379-2.323,23.212,15.232,15.228c0.002,0,10.467-4.761,10.467-4.761
		c-1.451,4.926-5.404,13.799-4.076,19.034c2.17,8.568,21.15-0.067,27.442-6.555c13.229-13.617,26.105-26.438,43.133-35.474
		c9.558-5.072,10.777-5.094,13.107-15.608c0.494-2.225,4.362-30.402,5.547-51.937c-12.6-0.132-22.735-2.011-34.278-5.604
		C228.246,415.509,228.228,414.627,228.251,415.532z"/>
	<path fill="#E2B7D5" d="M430.567,463.935c-20.86-7.31-42.727-7.789-64.512-5.508c-0.78,0.081-18.061,1.9-18.061,1.9
		c0.417-3.888,1.915-26.427,2.399-44.793c0.067-2.544,0.114-5.007,0.138-7.329c-11.691,5.939-23.422,10.034-34.389,12.058
		c1.186,21.53,5.052,49.682,5.542,51.904c2.333,10.517,3.553,10.536,13.107,15.608c17.029,9.036,29.906,21.856,43.135,35.474
		c6.292,6.489,25.271,15.123,27.442,6.555c1.33-5.235-2.625-14.108-4.074-19.034c-0.004,0,10.466,4.761,10.468,4.761
		c17.553,7.984,24.839,2.151,15.229-15.228c-0.062-0.114-5.71-10.469-5.712-10.469c1.545,2.832,28.83-4.578,30.182-9.437
		C453.996,471.225,436.615,466.053,430.567,463.935z"/>
</g>
<g>
	<path fill="#4AC6EE" d="M302.963,102.022c-2.712-1.749-5.774-2.935-9.063-3.423c-12.286-1.826-23.705,6.295-25.995,18.496
		c-0.051,0.285-0.101,0.581-0.144,0.873c-0.532,3.565-0.205,7.12,0.872,10.452c1.34-2.255,3.445-3.927,5.883-4.708
		c-0.229-1.535-0.239-3.127,0.002-4.742c1.311-8.836,9.537-14.932,18.376-13.615c1.422,0.21,2.764,0.617,4.021,1.16
		c0.553-1.053,1.381-2.051,2.463-2.87C300.511,102.79,301.754,102.25,302.963,102.022z"/>
	<path fill="#4AC6EE" d="M313.269,124.735c0.901-6.08-0.614-12.143-4.271-17.082c-0.008-0.009-0.015-0.018-0.021-0.027
		c-0.372,1.654-1.438,3.334-3.103,4.594c-0.466,0.353-0.95,0.645-1.445,0.891c1.83,3.083,2.65,6.794,2.083,10.618
		c-1.313,8.837-9.542,14.931-18.378,13.619c-0.24-0.038-0.475-0.099-0.71-0.144c-0.788,2.49-2.396,4.542-4.463,5.869
		c1.344,0.464,2.733,0.816,4.169,1.028C299.707,145.97,311.4,137.364,313.269,124.735z"/>
</g>
<path fill="#231F20" d="M306.512,123.729c0.567-3.824-0.253-7.535-2.083-10.618c-2.81,1.4-5.907,1.098-7.436-0.916
	c-1.166-1.545-1.111-3.708-0.076-5.681c-1.258-0.542-2.6-0.95-4.021-1.16c-8.839-1.317-17.065,4.778-18.376,13.615
	c-0.241,1.615-0.23,3.207-0.002,4.742c1.443-0.463,2.997-0.624,4.588-0.387c5.689,0.844,9.598,6.295,8.724,12.173
	c-0.089,0.591-0.233,1.157-0.405,1.707c0.235,0.045,0.47,0.106,0.71,0.144C296.97,138.66,305.198,132.566,306.512,123.729z"/>
<path fill="#3BB6E2" d="M416.745,277.25c-0.011,0.983-0.064,1.952-0.143,2.913c0.318-9.788-3.281-21.007-6.73-31.708
	c-1.616-5.019-3.049-9.787-4.626-14.246c-1.685-35.849-15.318-63.614-53.328-76.573c2.165-7.644,2.977-15.808,2.146-24.192
	c-3.554-35.881-35.52-62.078-71.399-58.524c-35.875,3.552-62.08,35.513-58.528,71.392c0.516,5.195,1.642,10.178,3.274,14.907
	c-28.295,12.035-48.554,34.413-52.139,71.568c-0.002,0.01-0.002,0.02-0.003,0.03c-5.681,11.248-9.97,23.137-11.921,35.091
	c-1.36,10.19-0.742,18.728,2.108,25.122c-13.33,2.772-21.767,8.085-18.298,26.547c5.459,24.654,19.157,51.471,37.716,69.965
	c19.662,18.492,51.819,33.067,85.667,30.43l30.571,1.761c40.4,0,99.362-35.229,124.474-90.708
	C434.841,310.578,444.217,284.541,416.745,277.25z M245.887,128.438c0.273-1.83,0.666-3.607,1.143-5.345
	c5.878-21.22,26.782-35.227,49.119-31.902c24.166,3.595,40.845,26.097,37.249,50.267c-0.021,0.134-0.044,0.268-0.067,0.403
	c-3.785,23.945-26.165,40.419-50.196,36.84C258.974,175.11,242.293,152.604,245.887,128.438z M173.909,276.498
	c1.401-2.786,5.271-3.557,7.833-2.054c2.816,1.649,3.458,5.046,2.055,7.833c-1.02,2.028-1.69,3.762-1.02,5.833
	c0.96,2.969-1.092,6.243-3.999,7.042c-3.111,0.856-6.084-1.031-7.044-3.999C170.101,286.106,171.615,281.056,173.909,276.498z
	 M262.185,405.169c-24.405-2.772-49.717-11.228-66.708-29.86c-17.117-18.771-25.841-42.328-24.486-67.7
	c0.392-7.346,11.847-7.383,11.451,0c-1.204,22.531,6.153,44.729,22.357,60.883c15.32,15.272,36.188,22.818,57.386,25.225
	C269.435,394.539,269.516,406,262.185,405.169z M371.882,215.105c-4.56,24.006-19.592,49.363-40.759,63.542
	c0.011,0.047,0.023,0.092,0.031,0.138c-7.414,4.949-15.644,8.505-24.467,10.132c-0.176,0.033-0.351,0.066-0.526,0.097
	c-0.383,0.068-0.768,0.134-1.158,0.196c-2.278,0.366-4.593,0.609-6.942,0.706c-33.383,1.364-64.29-25.897-79.859-55.878
	c-5.708-10.986-9.355-22.336-10.307-32.777c-0.082-0.889-0.145-1.773-0.186-2.657c10.56,4.399,39.002,15.987,48.95,17.412
	c5.713,0.821,12.48,1.495,19.536,1.907c3.368,0.252,6.78,0.387,10.226,0.391c11.55,0.206,22.898-0.438,30.824-2.459
	c4.99-1.274,11.214-3.665,17.735-6.535c3.912-1.563,7.658-3.313,11.225-5.227c10.754-5.25,20.889-10.806,26.319-13.848
	c0.228,1.407,0.421,2.825,0.551,4.263C373.669,201.041,373.228,208.015,371.882,215.105z"/>
<path fill="#BE232F" d="M361.788,233.854c-7.577,4.844-19.516-15.885-19.516-15.885s8.602,36.484,1.613,41.272
	c-7.009,4.805-25.024-25.396-25.024-25.396s-3.527,30.79-10.023,31.551c-6.891,0.808-15.01-30.496-15.01-30.496
	s-5.597,35.929-13.055,35.258c-7.687-0.694-9.541-38.431-9.541-38.431s-7.853,30.503-14.539,29.629
	c-6.677-0.868-9.794-32.749-9.794-32.749s-7.84,20.241-14.302,17.651c-6.532-2.619-2.877-24.944-2.877-24.944
	s-5.692,7.379-11.518,12.725c15.569,29.98,46.476,57.242,79.859,55.878c2.35-0.097,4.664-0.34,6.942-0.706
	c0.391-0.063,0.775-0.128,1.158-0.196c0.176-0.031,0.351-0.063,0.526-0.097c8.823-1.627,17.053-5.184,24.467-10.132
	c-0.008-0.045-0.021-0.091-0.031-0.138c21.167-14.179,36.199-39.536,40.759-63.542c-3.634-2.841-6.664-5.841-6.664-5.841
	S368.378,229.646,361.788,233.854z"/>
<path fill="#FFFFFF" d="M296.149,91.191c-22.337-3.325-43.241,10.683-49.119,31.902c-0.477,1.738-0.87,3.515-1.143,5.345
	c-3.594,24.165,13.086,46.672,37.248,50.262c24.031,3.58,46.411-12.895,50.196-36.84c0.023-0.135,0.046-0.269,0.067-0.403
	C336.994,117.288,320.315,94.787,296.149,91.191z M267.762,117.967c0.042-0.292,0.092-0.587,0.144-0.873
	c2.291-12.201,13.709-20.322,25.995-18.496c3.288,0.488,6.351,1.675,9.063,3.423c-1.209,0.229-2.452,0.768-3.583,1.622
	c-3.109,2.351-4.176,6.181-2.387,8.551c1.798,2.367,5.768,2.379,8.881,0.025c1.664-1.26,2.734-2.941,3.103-4.597
	c0,0.001,0,0.001,0,0.003c0.006,0.009,0.013,0.019,0.021,0.027c3.657,4.939,5.173,11.002,4.271,17.082
	c-1.868,12.628-13.562,21.234-26.139,19.366c-1.436-0.212-2.824-0.564-4.167-1.028c2.522-1.62,4.38-4.319,4.867-7.577
	c0.874-5.877-3.035-11.329-8.724-12.173c-4.007-0.594-7.824,1.254-10.041,4.449c-0.215,0.312-0.493,0.751-0.431,0.646
	C267.557,125.087,267.229,121.532,267.762,117.967z"/>
<path fill="#E3EDEF" d="M283.135,178.701c24.031,3.58,46.411-12.895,50.196-36.84c-5.876,21.22-26.781,35.225-49.12,31.907
	c-24.165-3.597-40.842-26.101-37.25-50.268c0.02-0.135,0.05-0.267,0.07-0.406c-0.477,1.738-0.87,3.515-1.143,5.345
	C242.293,152.604,258.974,175.11,283.135,178.701z"/>
<path fill="#FFFFFF" d="M373.074,194.509c-0.13-1.438-0.323-2.856-0.551-4.263c-5.431,3.042-15.565,8.598-26.319,13.848
	c-3.566,1.915-7.313,3.664-11.225,5.227c-6.521,2.87-12.745,5.261-17.735,6.535c-7.926,2.021-19.273,2.665-30.824,2.459
	c-3.446-0.004-6.857-0.139-10.226-0.391c-7.056-0.412-13.823-1.086-19.536-1.907c-9.948-1.425-38.39-13.013-48.95-17.412
	c0.042,0.884,0.104,1.769,0.186,2.657c0.952,10.441,4.6,21.791,10.307,32.777c5.826-5.346,11.518-12.725,11.518-12.725
	s-3.655,22.325,2.877,24.944c6.462,2.59,14.302-17.651,14.302-17.651s3.118,31.881,9.794,32.749
	c6.686,0.874,14.539-29.629,14.539-29.629s1.854,37.737,9.541,38.431c7.458,0.671,13.055-35.258,13.055-35.258
	s8.119,31.303,15.01,30.496c6.496-0.761,10.023-31.551,10.023-31.551s18.016,30.2,25.024,25.396
	c6.988-4.788-1.613-41.272-1.613-41.272s11.938,20.729,19.516,15.885c6.59-4.208,3.43-24.589,3.43-24.589s3.03,3,6.664,5.841
	C373.228,208.015,373.669,201.041,373.074,194.509z"/>
<g>
	<g>
		<path fill="#B6E3EE" d="M170.99,307.608c-1.355,25.372,7.369,48.93,24.486,67.7c16.992,18.633,42.303,27.088,66.708,29.86
			c7.331,0.831,7.25-10.63,0-11.453c-21.198-2.406-42.066-9.952-57.386-25.225c-16.204-16.153-23.561-38.352-22.357-60.883
			C182.837,300.226,171.382,300.263,170.99,307.608L170.99,307.608z"/>
	</g>
	<g>
		<path fill="#B6E3EE" d="M173.909,276.498c-2.294,4.559-3.808,9.608-2.175,14.655c0.96,2.968,3.933,4.855,7.044,3.999
			c2.907-0.799,4.959-4.073,3.999-7.042c-0.67-2.07,0-3.804,1.02-5.833c1.402-2.788,0.761-6.184-2.055-7.833
			C179.18,272.941,175.31,273.711,173.909,276.498L173.909,276.498z"/>
	</g>
</g>
</svg>
