<?xml version="1.0" encoding="utf-8"?>
<!-- Generator: Adobe Illustrator 16.2.0, SVG Export Plug-In . SVG Version: 6.00 Build 0)  -->
<!DOCTYPE svg PUBLIC "-//W3C//DTD SVG 1.1//EN" "http://www.w3.org/Graphics/SVG/1.1/DTD/svg11.dtd">
<svg version="1.1" id="Layer_1" xmlns="http://www.w3.org/2000/svg" xmlns:xlink="http://www.w3.org/1999/xlink" x="0px" y="0px"
	 width="576px" height="576px" viewBox="0 0 576 576" enable-background="new 0 0 576 576" xml:space="preserve">
<g>
	<path fill="#D6DE2C" d="M148.205,88.526c-11.69,2.944-23.551,5.159-35.478,6.854c-1.797,10.573-2.775,21.802-2.678,32.794
		c14.512-1.616,29.665-4.16,42.744-9.831C149.307,108.838,148.296,98.476,148.205,88.526z"/>
	<path fill="#D6DE2C" d="M387.035,82.075c11.735,2.758,23.63,4.785,35.58,6.289c1.966,10.545,3.122,21.756,3.197,32.75
		c-14.534-1.386-29.726-3.689-42.893-9.153C386.255,102.401,387.101,92.024,387.035,82.075z"/>
</g>
<g>
	<path fill="#C081B6" d="M131.203,186.044c17.598-7.962,33.284-20.487,44.417-36.045c-6.076-5.126-12.381-12.059-17.856-21.382
		c-14.644,6.26-31.107,9.254-47.182,11.155c0.617,7.33,1.773,14.403,3.583,20.924C117.175,171.549,123.771,179.826,131.203,186.044z
		"/>
	<path fill="#C081B6" d="M195.846,162.1c-2.701-1.031-6.234-2.611-10.208-4.97c-11,15.312-26.042,27.965-42.926,36.802
		c5.962,3.351,11.579,5.577,15.556,6.937C168.74,185.597,181.589,172.437,195.846,162.1z"/>
	<path fill="#C081B6" d="M141.567,41.701c-10.355-1.075-20.48,17.195-26.359,41.552c11.186-1.699,22.282-3.913,33.244-6.82
		C149.254,57.67,151.124,42.691,141.567,41.701z"/>
	<path fill="#C081B6" d="M405.579,179.31c7.333-6.334,13.797-14.713,16.635-25.615c1.706-6.549,2.75-13.64,3.25-20.979
		c-16.104-1.645-32.611-4.378-47.354-10.404c-5.326,9.408-11.52,16.44-17.515,21.663
		C371.976,159.354,387.857,171.629,405.579,179.31z"/>
	<path fill="#C081B6" d="M377.618,194.965c3.977-1.37,10.081-3.793,16.578-7.583c-17.021-8.568-32.262-20.983-43.502-36.118
		c-5.529,3.401-10.222,5.26-12.955,6.174C353.112,166.969,366.798,179.635,377.618,194.965z"/>
	<path fill="#C081B6" d="M392.928,35.151c10.338-1.239,20.75,16.869,27.015,41.129c-11.211-1.522-22.341-3.56-33.347-6.293
		C385.496,51.24,383.388,36.292,392.928,35.151z"/>
</g>
<path fill="#3BB6E2" d="M209.909,203.625c-17.124,0-31.006,13.778-31.006,30.774c0,16.998,13.882,30.775,31.006,30.775
	c17.124,0,31.005-13.777,31.005-30.775C240.914,217.404,227.032,203.625,209.909,203.625z M213.526,246.709
	c-8.848,0-16.019-7.117-16.019-15.899c0-6.92,4.455-12.805,10.672-14.99c2.535-4.363,7.86-6.272,12.421-4.263
	c3.807,1.678,5.95,5.591,5.682,9.639c2.047,2.669,3.264,6.001,3.264,9.614C229.546,239.593,222.373,246.709,213.526,246.709z"/>
<path fill="#AD1F2C" d="M311.146,294.449c1.366,7.252,3.04,15.34,4.66,21.125c-7.007,0.52-20.676-4.408-27.731-6.007
	c-0.449,7.923,2.079,16.694,1.52,26.64c-9.908,0.729-18.542-18.481-26.894-17.603c-0.87,1.549-8.149,25.731-10.367,29.049
	c-10.278-1.342-10.821-21.629-17.484-23.569c-2.876,5.633-16.647,20.081-24.055,20.627c0.303-5.544,0.169-13.225,0.198-20.743
	c-11.243-0.179-21.242-2.42-29.911-6.706c12.78,23.563,36.214,49.375,53.957,53.8c3.886,0.97,7.909,1.461,11.96,1.461
	c26.534,0,49.109-20.2,60.204-32.242c15.979-17.346,28.032-39.015,31.086-55.742C332.802,285.216,322.517,289.496,311.146,294.449z"
	/>
<path fill="#FFFFFF" d="M315.806,315.574c-1.62-5.785-3.294-13.873-4.66-21.125c-1.735,0.755-3.493,1.525-5.265,2.301
	c-26.227,11.494-62.145,27.234-93.439,27.234c-0.487,0-0.967-0.01-1.45-0.017c-0.029,7.519,0.105,15.199-0.198,20.743
	c7.408-0.546,21.179-14.994,24.055-20.627c6.664,1.94,7.207,22.228,17.484,23.569c2.217-3.317,9.497-27.5,10.367-29.049
	c8.352-0.879,16.986,18.332,26.894,17.603c0.56-9.945-1.969-18.717-1.52-26.64C295.13,311.166,308.799,316.094,315.806,315.574z"/>
<path fill="#8CC541" d="M316.854,188.905c-14.882,0-26.945,11.973-26.945,26.745s12.063,26.746,26.945,26.746
	s26.946-11.975,26.946-26.746S331.736,188.905,316.854,188.905z M320,226.347c-7.689,0-13.922-6.185-13.922-13.817
	c0-6.015,3.872-11.129,9.275-13.027c2.202-3.792,6.83-5.453,10.795-3.707c3.309,1.459,5.171,4.861,4.937,8.377
	c1.779,2.32,2.837,5.216,2.837,8.357C333.922,220.163,327.688,226.347,320,226.347z"/>
<g>
	<path fill="#231F20" d="M226.282,221.196c-0.078,1.173-0.349,2.359-0.854,3.504c-2.245,5.095-8.047,7.472-12.958,5.309
		c-4.911-2.163-7.073-8.049-4.828-13.145c0.16-0.364,0.343-0.708,0.538-1.044c-6.217,2.186-10.672,8.07-10.672,14.99
		c0,8.782,7.171,15.899,16.019,15.899c8.847,0,16.021-7.117,16.021-15.899C229.546,227.198,228.329,223.865,226.282,221.196z"/>
	<path fill="#231F20" d="M331.085,204.173c-0.067,1.021-0.302,2.051-0.741,3.047c-1.951,4.429-6.994,6.493-11.262,4.614
		c-4.269-1.881-6.148-6.996-4.196-11.426c0.139-0.314,0.297-0.615,0.468-0.906c-5.403,1.898-9.275,7.012-9.275,13.027
		c0,7.632,6.232,13.817,13.922,13.817c7.688,0,13.922-6.185,13.922-13.817C333.922,209.389,332.864,206.494,331.085,204.173z"/>
</g>
<g>
	<path fill="#FFFFFF" d="M205.654,187.764c-29.042,0-52.67,23.459-52.67,52.293c0,28.836,23.627,52.294,52.67,52.294
		c29.042,0,52.67-23.458,52.67-52.294C258.324,211.223,234.696,187.764,205.654,187.764z M178.903,234.4
		c0-16.996,13.882-30.774,31.006-30.774c17.124,0,31.005,13.778,31.005,30.774c0,16.998-13.881,30.775-31.005,30.775
		C192.785,265.175,178.903,251.397,178.903,234.4z"/>
	<path fill="#FFFFFF" d="M220.601,211.557c-4.561-2.009-9.886-0.1-12.421,4.263c-0.195,0.336-0.378,0.681-0.538,1.044
		c-2.245,5.096-0.083,10.982,4.828,13.145c4.911,2.163,10.713-0.214,12.958-5.309c0.506-1.146,0.777-2.331,0.854-3.504
		C226.551,217.148,224.408,213.235,220.601,211.557z"/>
	<path fill="#FFFFFF" d="M313.158,175.12c-25.241,0-45.776,20.387-45.776,45.447c0,25.061,20.535,45.448,45.776,45.448
		c25.239,0,45.774-20.387,45.774-45.448C358.933,195.506,338.397,175.12,313.158,175.12z M289.909,215.65
		c0-14.771,12.063-26.745,26.945-26.745s26.946,11.973,26.946,26.745s-12.064,26.746-26.946,26.746S289.909,230.421,289.909,215.65z
		"/>
	<path fill="#FFFFFF" d="M326.148,195.796c-3.965-1.746-8.593-0.086-10.795,3.707c-0.171,0.292-0.329,0.592-0.468,0.906
		c-1.952,4.43-0.072,9.545,4.196,11.426c4.268,1.879,9.311-0.186,11.262-4.614c0.439-0.996,0.674-2.027,0.741-3.047
		C331.319,200.658,329.457,197.255,326.148,195.796z"/>
</g>
<g>
	<path fill="#FBB041" d="M185.638,157.13c-3.135-1.859-6.538-4.193-10.018-7.132c-11.134,15.558-26.819,28.083-44.417,36.045
		c3.742,3.13,7.69,5.742,11.509,7.888C159.596,185.096,174.638,172.442,185.638,157.13z"/>
	<path fill="#FBB041" d="M157.764,128.617c-0.676-1.151-1.344-2.326-1.993-3.552c-1.154-2.178-2.136-4.426-2.979-6.722
		c-13.079,5.671-28.231,8.215-42.744,9.831c0.035,3.912,0.211,7.787,0.534,11.597C126.657,137.871,143.12,134.876,157.764,128.617z"
		/>
	<path fill="#FBB041" d="M148.452,76.433c-10.962,2.907-22.059,5.121-33.244,6.82c-0.943,3.904-1.774,7.964-2.481,12.126
		c11.926-1.695,23.788-3.91,35.478-6.854C148.167,84.394,148.285,80.331,148.452,76.433z"/>
	<path fill="#FBB041" d="M394.196,187.382c3.787-2.207,7.692-4.883,11.383-8.072c-17.722-7.681-33.604-19.956-44.983-35.335
		c-3.433,2.992-6.798,5.382-9.901,7.289C361.935,166.399,377.175,178.813,394.196,187.382z"/>
	<path fill="#FBB041" d="M380.048,118.729c1.119-2.196,2.065-4.459,2.872-6.769c13.167,5.464,28.358,7.767,42.893,9.153
		c0.029,3.912-0.087,7.788-0.349,11.603c-16.104-1.645-32.611-4.378-47.354-10.404C378.769,121.151,379.417,119.965,380.048,118.729
		z"/>
	<path fill="#FBB041" d="M386.596,69.987c11.006,2.733,22.136,4.771,33.347,6.293c1.005,3.888,1.9,7.934,2.673,12.084
		c-11.95-1.504-23.845-3.531-35.58-6.289C387.006,77.942,386.824,73.882,386.596,69.987z"/>
	<ellipse fill="#FBB041" cx="256.366" cy="160.892" rx="24.734" ry="7.664"/>
	<ellipse fill="#FBB041" cx="370.381" cy="270.252" rx="17.768" ry="7.665"/>
	<ellipse fill="#FBB041" cx="359.233" cy="326.34" rx="15.677" ry="10.103"/>
	<ellipse fill="#FBB041" cx="169.369" cy="307.877" rx="18.115" ry="6.271"/>
	<ellipse fill="#FBB041" cx="340.072" cy="379.989" rx="26.477" ry="10.8"/>
	<ellipse fill="#FBB041" cx="402.432" cy="394.273" rx="14.283" ry="4.877"/>
	<ellipse fill="#FBB041" cx="326.137" cy="413.433" rx="14.632" ry="6.62"/>
</g>
<path fill="#F15B2A" d="M397.854,360.145c-7.132-11.434-5.13-25.69-1.748-41.206c0.092,0.005,0.194,0.008,0.281,0.012
	c8.856,0.537,23.179,1.08,31.751,4.055c11.648,4.045,6.881,20.022,14.997,21.903c18.37,4.256-6.205-20.652,10.08-13.561
	c3.242,1.411,6.958,5.752,10.07,7.386c2.509,1.308,5.208,3.552,8.101,2.529c1.187-0.418,3.928-3.437,3.748-4.749
	c-0.288-2.131-4.248-4.562-6.232-5.239c-3.043-1.036-13.551-4.204-8.36-8.865c0.758-0.683,6.835,1.006,7.935,1.178
	c5.27,0.834,14.758,2.4,15.998-5.378c1.012-6.361-12.018-3.09-15.312-2.606c-1.85,0.267-11.15,1.92-7.633-2.491
	c2.368-2.969,23.438-5.555,15.782-13.993c-2.359-2.602-8.152,2.392-10.894,3.352c-5.921,2.049-11.506,5.272-17.563,6.908
	c-11.766,3.173-24.52-0.168-36.404-2.032c-0.636-0.1-1.971-0.415-3.743-0.846c-1.236-0.298-4.901-1.134-9.391-1.864
	c1.97-9.053,3.642-18.353,3.642-27.627c0-84.551-67.363-139.912-135.341-139.912c-67.976,0-137.384,68.54-137.384,153.094
	c0,12.926,1.622,25.247,4.601,36.887c-0.497,0.112-0.895,0.194-1.163,0.235c-11.884,1.869-24.636,5.21-36.401,2.029
	c-6.059-1.632-11.641-4.856-17.561-6.91c-2.745-0.95-8.537-5.943-10.896-3.346c-7.66,8.438,13.414,11.019,15.782,13.989
	c3.516,4.41-5.784,2.767-7.632,2.495c-3.296-0.484-16.322-3.755-15.31,2.611c1.238,7.777,10.728,6.206,15.998,5.378
	c1.102-0.178,7.174-1.865,7.935-1.184c5.184,4.665-5.319,7.825-8.362,8.865c-1.983,0.672-5.946,3.107-6.235,5.235
	c-0.177,1.317,2.564,4.333,3.751,4.748c2.891,1.023,5.592-1.216,8.096-2.524c3.115-1.633,6.833-5.974,10.077-7.386
	c16.285-7.092-8.294,17.822,10.078,13.561c8.114-1.881,3.346-17.86,14.995-21.904c5.509-1.913,13.388-2.817,20.67-3.363
	c16.383,46.183,54.696,80.043,97.114,95.595c0.617,15.17,1.653,30.429,1.982,33.51c0,0-16.642-1.752-17.394-1.83
	c-20.983-2.195-42.045-1.738-62.144,5.308c-5.822,2.041-22.563,7.018-20.123,15.852c1.299,4.684,27.583,11.82,29.07,9.091
	c-0.002,0-5.442,9.975-5.501,10.086c-9.256,16.739-2.237,22.359,14.671,14.668c0.002,0,10.083-4.586,10.083-4.586
	c-1.397,4.744-5.205,13.291-3.925,18.334c2.089,8.253,20.373-0.064,26.433-6.313c12.743-13.118,25.145-25.466,41.547-34.17
	c9.206-4.887,10.38-4.907,12.625-15.035c0.379-1.707,2.821-19.292,4.376-36.859c0.049,0.006,0.1,0.015,0.149,0.022
	c19.602,2.787,37.477,3.864,53.778,3.57c1.549,16.303,3.692,31.677,4.043,33.267c2.249,10.13,3.422,10.148,12.626,15.035
	c16.403,8.704,28.806,21.052,41.548,34.17c6.062,6.25,24.343,14.565,26.435,6.313c1.28-5.043-2.528-13.59-3.926-18.334
	c-0.002,0,10.083,4.586,10.085,4.586c16.905,7.691,23.925,2.071,14.669-14.668c-0.06-0.111-5.499-10.083-5.501-10.083
	c1.487,2.727,27.769-4.41,29.07-9.092c2.439-8.834-14.301-13.816-20.127-15.856c-20.094-7.041-41.155-7.502-62.141-5.305
	c-0.749,0.078-17.396,1.83-17.396,1.83c0.263-2.45,0.97-12.582,1.56-24.248c105.616-14.837,130.139-92.898,134.374-98.514
	C491.676,339.373,422.372,399.457,397.854,360.145z M358.933,220.566c0,25.061-20.535,45.448-45.774,45.448
	c-25.241,0-45.776-20.387-45.776-45.448c0-25.06,20.535-45.447,45.776-45.447C338.397,175.12,358.933,195.506,358.933,220.566z
	 M256.366,153.229c13.662,0,24.734,3.431,24.734,7.664s-11.073,7.664-24.734,7.664c-13.661,0-24.734-3.431-24.734-7.664
	S242.706,153.229,256.366,153.229z M205.654,187.764c29.042,0,52.67,23.459,52.67,52.293c0,28.836-23.628,52.294-52.67,52.294
	c-29.042,0-52.67-23.458-52.67-52.294C152.984,211.223,176.611,187.764,205.654,187.764z M169.369,301.606
	c10.006,0,18.116,2.807,18.116,6.271c0,3.463-8.11,6.271-18.116,6.271c-10.004,0-18.115-2.808-18.115-6.271
	C151.254,304.413,159.364,301.606,169.369,301.606z M156.857,359.526c-4.172-4.889-7.473-10.153-7.696-16.754
	c-0.152-4.51,3.878-8.273,8.273-8.273c4.625,0,8.121,3.768,8.273,8.273c0.004,0.063,0.006,0.109,0.009,0.165
	c0.067,0.282,0.128,0.565,0.216,0.843c0.042,0.124,0.076,0.225,0.104,0.311c0.046,0.08,0.097,0.167,0.159,0.278
	c0.423,0.76,0.876,1.502,1.374,2.214c0.209,0.246,0.972,1.224,0.988,1.241c2.924,3.428,3.375,8.325,0,11.702
	C165.558,362.525,159.787,362.958,156.857,359.526z M281.611,436.967c-20.482-5.139-41.091-10.704-60.048-20.227
	c-19.952-10.022-36.68-24.17-49.936-42.122c-2.685-3.637-0.61-9.224,2.968-11.318c4.206-2.465,8.646-0.653,11.319,2.968
	c24.307,32.919,62.054,45.198,100.094,54.744C296.354,423.607,291.965,439.564,281.611,436.967z M246.998,372.522
	c-4.052,0-8.075-0.491-11.96-1.461c-17.743-4.425-41.176-30.236-53.957-53.8c8.669,4.286,18.668,6.527,29.911,6.706
	c0.483,0.007,0.963,0.017,1.45,0.017c31.294,0,67.212-15.74,93.439-27.234c1.771-0.775,3.529-1.546,5.265-2.301
	c11.371-4.953,21.656-9.233,27.142-9.911c-3.054,16.728-15.106,38.396-31.086,55.742
	C296.106,352.322,273.531,372.522,246.998,372.522z M326.137,420.053c-8.081,0-14.632-2.964-14.632-6.62
	c0-3.654,6.551-6.618,14.632-6.618s14.633,2.964,14.633,6.618C340.77,417.089,334.218,420.053,326.137,420.053z M340.072,390.789
	c-14.623,0-26.477-4.835-26.477-10.8c0-5.964,11.854-10.799,26.477-10.799s26.477,4.835,26.477,10.799
	C366.549,385.954,354.695,390.789,340.072,390.789z M359.232,336.442c-8.658,0-15.676-4.521-15.676-10.103
	c0-5.579,7.018-10.102,15.676-10.102c8.659,0,15.678,4.522,15.678,10.102C374.91,331.921,367.892,336.442,359.232,336.442z
	 M370.381,277.917c-9.813,0-17.768-3.433-17.768-7.665c0-4.233,7.955-7.665,17.768-7.665s17.768,3.432,17.768,7.665
	C388.148,274.484,380.193,277.917,370.381,277.917z M402.431,399.15c-7.888,0-14.282-2.184-14.282-4.877
	c0-2.694,6.395-4.877,14.282-4.877c7.89,0,14.284,2.183,14.284,4.877C416.715,396.967,410.32,399.15,402.431,399.15z"/>
<g>
	<path fill="#F59177" d="M149.161,342.772c0.223,6.601,3.524,11.865,7.696,16.754c2.93,3.432,8.701,2.999,11.7,0
		c3.375-3.377,2.924-8.274,0-11.702c-0.023-0.026-1.702-2.177-0.751-0.89c-0.602-0.813-1.119-1.683-1.611-2.565
		c-1.122-2.01,0.455,1.49-0.262-0.589c-0.134-0.422-0.244-0.85-0.33-1.283c0.124,1.131,0.158,1.224,0.104,0.275
		c-0.152-4.506-3.648-8.273-8.273-8.273C153.04,334.499,149.009,338.263,149.161,342.772L149.161,342.772z"/>
	<path fill="#F59177" d="M171.627,374.618c13.256,17.952,29.984,32.1,49.936,42.122c18.957,9.522,39.566,15.088,60.048,20.227
		c10.354,2.598,14.743-13.359,4.397-15.955c-38.04-9.546-75.787-21.825-100.094-54.744c-2.673-3.621-7.114-5.433-11.319-2.968
		C171.018,365.395,168.942,370.981,171.627,374.618L171.627,374.618z"/>
</g>
</svg>
