<?xml version="1.0" encoding="utf-8"?>
<!-- Generator: Adobe Illustrator 16.2.0, SVG Export Plug-In . SVG Version: 6.00 Build 0)  -->
<!DOCTYPE svg PUBLIC "-//W3C//DTD SVG 1.1//EN" "http://www.w3.org/Graphics/SVG/1.1/DTD/svg11.dtd">
<svg version="1.1" id="Layer_1" xmlns="http://www.w3.org/2000/svg" xmlns:xlink="http://www.w3.org/1999/xlink" x="0px" y="0px"
	 width="576px" height="576px" viewBox="0 0 576 576" enable-background="new 0 0 576 576" xml:space="preserve">
<g>
	<path fill="#4AC6EE" d="M374.688,144.867c-1.807,4.435-2.697,9.231-2.511,14.159c0.698,18.423,15.67,32.852,34.094,32.852
		c0.432,0,0.875-0.01,1.313-0.026c5.346-0.2,10.443-1.648,15.007-4.134c-3.655-1.337-6.67-3.951-8.477-7.29
		c-2.178,0.748-4.496,1.203-6.917,1.294c-13.248,0.504-24.392-9.828-24.891-23.079c-0.082-2.132,0.144-4.198,0.592-6.185
		c-1.688-0.519-3.37-1.454-4.859-2.808C376.481,148.237,375.355,146.57,374.688,144.867z"/>
	<path fill="#4AC6EE" d="M405,123.62c-9.115,0.347-17.544,4.219-23.746,10.904c-0.012,0.014-0.022,0.027-0.035,0.041
		c2.515,0.085,5.259,1.186,7.551,3.267c0.642,0.583,1.202,1.211,1.696,1.865c3.998-3.512,9.184-5.729,14.92-5.945
		c13.247-0.504,24.389,9.83,24.892,23.079c0.014,0.362-0.013,0.718-0.014,1.077c3.847,0.465,7.282,2.25,9.783,4.901
		c0.308-2.085,0.441-4.209,0.359-6.361C439.688,137.587,423.935,122.89,405,123.62z"/>
	<path fill="#4AC6EE" d="M222.989,144.867c-1.806,4.435-2.697,9.231-2.512,14.159c0.699,18.423,15.67,32.852,34.095,32.852
		c0.432,0,0.874-0.01,1.312-0.026c5.347-0.2,10.443-1.648,15.007-4.134c-3.655-1.337-6.669-3.951-8.477-7.29
		c-2.176,0.748-4.497,1.203-6.916,1.294c-13.248,0.504-24.392-9.828-24.892-23.079c-0.081-2.132,0.146-4.198,0.593-6.185
		c-1.688-0.519-3.371-1.454-4.86-2.808C224.782,148.237,223.656,146.57,222.989,144.867z"/>
	<path fill="#4AC6EE" d="M253.3,123.62c-9.115,0.347-17.544,4.219-23.747,10.904c-0.012,0.014-0.022,0.027-0.034,0.041
		c2.513,0.085,5.257,1.186,7.55,3.267c0.642,0.583,1.201,1.211,1.695,1.865c4-3.512,9.184-5.729,14.92-5.945
		c13.248-0.504,24.391,9.83,24.893,23.079c0.014,0.362-0.012,0.718-0.014,1.077c3.845,0.465,7.283,2.25,9.782,4.901
		c0.307-2.085,0.442-4.209,0.36-6.361C287.989,137.587,272.235,122.89,253.3,123.62z"/>
	<path fill="#4AC6EE" d="M71.287,144.867c-1.808,4.435-2.699,9.231-2.512,14.159c0.698,18.423,15.67,32.852,34.094,32.852
		c0.431,0,0.875-0.01,1.313-0.026c5.347-0.2,10.443-1.648,15.006-4.134c-3.655-1.337-6.669-3.951-8.476-7.29
		c-2.177,0.748-4.497,1.203-6.917,1.294c-13.248,0.504-24.392-9.828-24.89-23.079c-0.083-2.132,0.145-4.198,0.592-6.185
		c-1.688-0.519-3.371-1.454-4.86-2.808C73.079,148.237,71.953,146.57,71.287,144.867z"/>
	<path fill="#4AC6EE" d="M101.597,123.62c-9.115,0.347-17.544,4.219-23.745,10.904c-0.012,0.014-0.023,0.027-0.034,0.041
		c2.513,0.085,5.257,1.186,7.549,3.267c0.641,0.583,1.202,1.211,1.696,1.865c3.999-3.512,9.184-5.729,14.92-5.945
		c13.248-0.504,24.389,9.83,24.892,23.079c0.013,0.362-0.011,0.718-0.014,1.077c3.846,0.465,7.283,2.25,9.783,4.901
		c0.307-2.085,0.441-4.209,0.359-6.361C136.285,137.587,120.532,122.89,101.597,123.62z"/>
</g>
<g>
	<path fill="#231F20" d="M405.386,133.751c-5.736,0.216-10.922,2.433-14.92,5.945c2.81,3.711,3.215,8.314,0.697,11.095
		c-1.934,2.125-5.104,2.639-8.265,1.667c-0.448,1.987-0.674,4.053-0.592,6.185c0.499,13.251,11.643,23.583,24.891,23.079
		c2.421-0.091,4.739-0.546,6.917-1.294c-1.07-1.98-1.729-4.204-1.821-6.588c-0.325-8.531,6.556-15.723,15.369-16.058
		c0.885-0.033,1.75,0.023,2.602,0.125c0.001-0.359,0.027-0.714,0.014-1.077C429.774,143.582,418.633,133.248,405.386,133.751z"/>
	<path fill="#231F20" d="M253.685,133.751c-5.736,0.216-10.92,2.433-14.92,5.945c2.812,3.711,3.216,8.314,0.699,11.095
		c-1.935,2.125-5.106,2.639-8.266,1.667c-0.447,1.987-0.674,4.053-0.593,6.185c0.5,13.251,11.644,23.583,24.892,23.079
		c2.419-0.091,4.74-0.546,6.916-1.294c-1.069-1.98-1.729-4.204-1.82-6.588c-0.326-8.531,6.554-15.723,15.368-16.058
		c0.885-0.033,1.751,0.023,2.603,0.125c0.001-0.359,0.027-0.714,0.014-1.077C278.075,143.582,266.933,133.248,253.685,133.751z"/>
	<path fill="#231F20" d="M101.982,133.751c-5.736,0.216-10.921,2.433-14.92,5.945c2.811,3.711,3.216,8.314,0.698,11.095
		c-1.934,2.125-5.105,2.639-8.264,1.667c-0.447,1.987-0.675,4.053-0.592,6.185c0.499,13.251,11.643,23.583,24.89,23.079
		c2.421-0.091,4.74-0.546,6.917-1.294c-1.07-1.98-1.73-4.204-1.821-6.588c-0.326-8.531,6.555-15.723,15.369-16.058
		c0.885-0.033,1.75,0.023,2.602,0.125c0.002-0.359,0.027-0.714,0.014-1.077C126.372,143.582,115.23,133.248,101.982,133.751z"/>
</g>
<g>
	<path fill="#E3EDEF" d="M491.969,152.805c-1.355-36.034-31.513-64.169-67.479-63.138c32.563,2.764,58.715,29.425,59.986,62.917
		c1.37,36.236-26.896,66.721-63.129,68.098c-0.204,0.007-0.402,0-0.611,0.007c2.664,0.221,5.365,0.309,8.108,0.204
		C465.079,219.525,493.344,189.032,491.969,152.805z"/>
	<path fill="#E3EDEF" d="M340.268,152.805c-1.354-36.034-31.512-64.169-67.477-63.138c32.563,2.764,58.714,29.425,59.986,62.917
		c1.37,36.236-26.895,66.721-63.129,68.098c-0.203,0.007-0.403,0-0.612,0.007c2.666,0.221,5.367,0.309,8.109,0.204
		C313.379,219.525,341.645,189.032,340.268,152.805z"/>
	<path fill="#E3EDEF" d="M188.566,152.805c-1.355-36.034-31.513-64.169-67.479-63.138c32.563,2.764,58.715,29.425,59.986,62.917
		c1.37,36.236-26.895,66.721-63.128,68.098c-0.204,0.007-0.403,0-0.612,0.007c2.666,0.221,5.367,0.309,8.109,0.204
		C161.676,219.525,189.941,189.032,188.566,152.805z"/>
</g>
<g>
	<path fill="#FFFFFF" d="M484.477,152.583c-1.271-33.492-27.424-60.153-59.986-62.917c-0.203,0.006-0.404,0.006-0.605,0.011
		c-36.241,1.37-64.5,31.856-63.13,68.092c1.266,33.495,27.417,60.154,59.981,62.919c0.209-0.007,0.407,0,0.611-0.007
		C457.581,219.305,485.847,188.819,484.477,152.583z M407.584,191.852c-0.438,0.016-0.881,0.026-1.313,0.026
		c-18.424,0-33.396-14.429-34.094-32.852c-0.187-4.928,0.704-9.724,2.511-14.159c0.667,1.703,1.793,3.37,3.351,4.783
		c4.277,3.891,10.158,4.402,13.124,1.142c2.961-3.27,1.893-9.063-2.394-12.96c-2.293-2.082-5.04-3.183-7.555-3.267
		c0.002,0,0.003,0,0.004,0c0.013-0.014,0.023-0.027,0.035-0.041c6.202-6.685,14.631-10.558,23.746-10.904
		c18.935-0.73,34.688,13.967,35.406,32.827c0.082,2.151-0.052,4.275-0.359,6.361c0.002,0.001,0.002,0.001,0.003,0.002
		c-3.054-3.24-7.503-5.209-12.388-5.029c-8.813,0.335-15.694,7.527-15.369,16.058c0.23,6.009,3.971,11.069,9.239,13.428
		c0.514,0.23,1.23,0.513,1.059,0.45C418.027,190.204,412.93,191.652,407.584,191.852z"/>
	<path fill="#FFFFFF" d="M332.776,152.583c-1.271-33.492-27.423-60.153-59.986-62.917c-0.203,0.006-0.404,0.006-0.606,0.011
		c-36.24,1.37-64.5,31.856-63.129,68.092c1.266,33.495,27.417,60.154,59.979,62.919c0.209-0.007,0.409,0,0.612-0.007
		C305.882,219.305,334.146,188.819,332.776,152.583z M255.883,191.852c-0.438,0.016-0.88,0.026-1.312,0.026
		c-18.425,0-33.396-14.429-34.095-32.852c-0.186-4.928,0.706-9.724,2.512-14.159c0.667,1.703,1.793,3.37,3.349,4.783
		c4.279,3.891,10.159,4.402,13.126,1.142c2.96-3.27,1.891-9.063-2.394-12.96c-2.294-2.082-5.04-3.183-7.554-3.267
		c0.001,0,0.002,0,0.004,0c0.012-0.014,0.022-0.027,0.034-0.041c6.202-6.685,14.631-10.558,23.747-10.904
		c18.935-0.73,34.688,13.967,35.406,32.827c0.082,2.151-0.053,4.275-0.36,6.361c0.001,0.001,0.001,0.001,0.004,0.002
		c-3.054-3.24-7.502-5.209-12.389-5.029c-8.814,0.335-15.693,7.527-15.368,16.058c0.23,6.009,3.971,11.069,9.239,13.428
		c0.514,0.23,1.229,0.513,1.058,0.45C266.327,190.204,261.23,191.652,255.883,191.852z"/>
	<path fill="#FFFFFF" d="M181.073,152.583c-1.271-33.492-27.423-60.153-59.986-62.917c-0.203,0.006-0.404,0.006-0.606,0.011
		c-36.239,1.37-64.5,31.856-63.129,68.092c1.266,33.495,27.417,60.154,59.981,62.919c0.209-0.007,0.408,0,0.612-0.007
		C154.178,219.305,182.443,188.819,181.073,152.583z M104.181,191.852c-0.438,0.016-0.881,0.026-1.313,0.026
		c-18.424,0-33.396-14.429-34.094-32.852c-0.187-4.928,0.704-9.724,2.512-14.159c0.666,1.703,1.792,3.37,3.349,4.783
		c4.278,3.891,10.158,4.402,13.125,1.142c2.96-3.27,1.893-9.063-2.394-12.96c-2.293-2.082-5.04-3.183-7.554-3.267
		c0,0,0.002,0,0.005,0c0.011-0.014,0.022-0.027,0.034-0.041c6.201-6.685,14.63-10.558,23.745-10.904
		c18.935-0.73,34.688,13.967,35.406,32.827c0.083,2.151-0.052,4.275-0.359,6.361c0.001,0.001,0.001,0.001,0.002,0.002
		c-3.054-3.24-7.502-5.209-12.387-5.029c-8.814,0.335-15.695,7.527-15.369,16.058c0.23,6.009,3.971,11.069,9.239,13.428
		c0.514,0.23,1.23,0.513,1.058,0.45C114.625,190.204,109.528,191.652,104.181,191.852z"/>
</g>
<path fill="#F48FAD" d="M537.717,406.012c-14.549-25.744-68.257,5.589-87.288-20.143c-8.804-11.905-6.764-37.332-3.717-50.578
	c5.726-24.92,22.239-48.278,18.953-74.853c-1.198-9.665-4.805-17.89-10.03-24.905c35.792-13.025,59.646-49.015,55.712-88.667
	c-4.642-46.939-46.463-81.207-93.402-76.56c-29.855,2.956-54.571,20.963-67.425,45.75c-15.6-30.146-48.434-49.298-84.276-45.75
	c-29.856,2.957-54.575,20.964-67.427,45.753c-15.602-30.147-48.437-49.301-84.274-45.753c-46.933,4.647-81.224,46.459-76.567,93.4
	c3.323,33.547,25.638,60.614,55.231,71.638c-2.776,2.583-5.241,5.298-7.242,8.155c-11.579,16.533-15.427,38.731-17.142,58.438
	c-2.237,25.736,4.479,40.282,11.195,63.785c8.954,35.812-12.316,41.406-32.458,64.909c-27.973,32.451,7.831,36.927,32.458,24.618
	c13.425-7.834,59.309-48.121,72.733-24.618c7.832,12.311-34.688,79.453,12.313,62.664c23.504-7.832,42.524-53.716,74.975-40.286
	c27.979,11.196,15.668,67.146,54.835,66.028c41.411-1.118-2.236-55.955,39.168-52.597c30.222,2.237,44.769,49.238,78.335,36.931
	c39.174-13.431-23.493-44.761-19.021-64.909c6.715-31.334,62.666-7.831,80.578-5.598
	C488.475,433.988,557.863,441.824,537.717,406.012z M423.885,89.678c0.201-0.005,0.402-0.005,0.605-0.011
	c35.966-1.031,66.123,27.104,67.479,63.138c1.375,36.227-26.89,66.72-63.124,68.088c-2.743,0.104-5.444,0.017-8.108-0.204
	c-32.564-2.765-58.716-29.424-59.981-62.919C359.385,121.534,387.644,91.048,423.885,89.678z M398.904,248.8
	c0,3.944-7.244,7.143-16.189,7.143c-8.939,0-16.19-3.199-16.19-7.143c0-3.945,7.251-7.142,16.19-7.142
	C391.66,241.658,398.904,244.855,398.904,248.8z M272.185,89.678c0.202-0.005,0.403-0.005,0.606-0.011
	c35.965-1.031,66.124,27.104,67.477,63.138c1.377,36.227-26.889,66.72-63.123,68.088c-2.743,0.104-5.444,0.017-8.109-0.204
	c-32.563-2.765-58.714-29.424-59.979-62.919C207.685,121.534,235.944,91.048,272.185,89.678z M334.935,267.753
	c0,3.679-8.569,6.666-19.159,6.666c-10.577,0-19.158-2.986-19.158-6.666c0-3.686,8.581-6.663,19.158-6.663
	C326.365,261.09,334.935,264.068,334.935,267.753z M281.711,239.753c0,5.001-7.891,9.047-17.624,9.047
	c-9.723,0-17.613-4.045-17.613-9.047c0-4.992,7.89-9.046,17.613-9.046C273.82,230.707,281.711,234.761,281.711,239.753z
	 M203.024,253.041c0,5.522-10.022,10-22.385,10s-22.376-4.477-22.376-10c0-5.521,10.013-9.999,22.376-9.999
	S203.024,247.52,203.024,253.041z M57.352,157.77c-1.37-36.236,26.89-66.722,63.129-68.092c0.202-0.005,0.403-0.005,0.606-0.011
	c35.965-1.031,66.123,27.104,67.479,63.138c1.375,36.227-26.89,66.72-63.124,68.088c-2.743,0.104-5.444,0.017-8.109-0.204
	C84.769,217.923,58.618,191.265,57.352,157.77z M116.715,248.447c-0.107,0.078-0.197,0.14-0.274,0.194
	c-0.076,0.077-0.172,0.173-0.316,0.31c-0.312,0.288-0.613,0.583-0.901,0.895c-0.118,0.131-0.202,0.219-0.271,0.292
	c-0.014,0.022-0.022,0.037-0.038,0.06c-0.219,0.331-0.423,0.667-0.615,1.014c-0.112,0.214-0.407,0.986-0.46,1.094
	c-0.047,0.145-0.1,0.29-0.144,0.437c-0.233,0.842-0.426,1.685-0.591,2.542c-0.784,4.094-5.627,6.375-9.399,5.337
	c-4.25-1.169-6.12-5.314-5.336-9.399c1.311-6.841,5.043-11.954,10.632-15.97c3.39-2.436,8.498-0.597,10.455,2.742
	C121.711,241.842,120.091,246.022,116.715,248.447z M136.292,413.348c-22.994-10.03-36.973-34.837-43.844-57.884
	c-7.355-24.675-9.574-53.133-0.01-77.541c3.553-9.068,18.334-5.125,14.735,4.062c-8.338,21.286-6.994,45.92-0.547,67.542
	c6.045,20.283,17.021,41.745,37.378,50.627C153.017,404.086,145.229,417.248,136.292,413.348z M164.557,379.514
	c-10.778,0-19.521-4.051-19.521-9.049s8.744-9.047,19.521-9.047c10.777,0,19.522,4.049,19.522,9.047
	S175.334,379.514,164.557,379.514z M200.823,414c-7.368,0-13.334-2.985-13.334-6.666c0-3.685,5.966-6.671,13.334-6.671
	c7.361,0,13.333,2.986,13.333,6.671C214.155,411.015,208.184,414,200.823,414z M279.067,406.085c-9.468,0-17.142-3.621-17.142-8.091
	c0-4.468,7.674-8.092,17.142-8.092c9.467,0,17.143,3.624,17.143,8.092C296.21,402.464,288.534,406.085,279.067,406.085z
	 M317.764,438.541c-9.988,0-18.087-2.986-18.087-6.668c0-3.68,8.099-6.664,18.087-6.664c9.995,0,18.095,2.984,18.095,6.664
	C335.858,435.555,327.759,438.541,317.764,438.541z M357.188,402.15c-10.273,0-18.615-3.409-18.615-7.609
	c0-4.206,8.342-7.617,18.615-7.617c10.277,0,18.606,3.411,18.606,7.617C375.795,398.741,367.466,402.15,357.188,402.15z
	 M403.898,370.488c-10.785,0-19.522-3.622-19.522-8.095c0-4.47,8.737-8.094,19.522-8.094c10.777,0,19.521,3.624,19.521,8.094
	C423.42,366.866,414.676,370.488,403.898,370.488z M358.314,347.926c-23.787,7.722-51.153,12.704-80.139,13.005
	c-32.712,0.341-62.977-5.327-88.273-14.272c-44.375-15.69-73.452-41.472-73.538-62.662c-0.012-2.891,0.537-5.739,1.594-8.53
	c36.796,15.322,95.504,24.88,161.604,24.192c66.101-0.685,124.725-11.46,161.391-27.543c1.079,2.768,1.651,5.604,1.665,8.495
	C442.711,303.171,408.469,331.643,358.314,347.926z"/>
<g>
	<path fill="#EDAECF" d="M203.024,253.041c0,5.522-10.022,10-22.385,10s-22.376-4.477-22.376-10c0-5.521,10.013-9.999,22.376-9.999
		S203.024,247.52,203.024,253.041z"/>
	<ellipse fill="#EDAECF" cx="279.067" cy="397.994" rx="17.143" ry="8.091"/>
	<path fill="#EDAECF" d="M184.079,370.465c0,4.998-8.745,9.049-19.522,9.049c-10.778,0-19.521-4.051-19.521-9.049
		s8.744-9.047,19.521-9.047C175.334,361.418,184.079,365.467,184.079,370.465z"/>
	<path fill="#EDAECF" d="M281.711,239.753c0,5.001-7.891,9.047-17.624,9.047c-9.723,0-17.613-4.045-17.613-9.047
		c0-4.992,7.89-9.046,17.613-9.046C273.82,230.707,281.711,234.761,281.711,239.753z"/>
	<path fill="#EDAECF" d="M334.935,267.753c0,3.679-8.569,6.666-19.159,6.666c-10.577,0-19.158-2.986-19.158-6.666
		c0-3.686,8.581-6.663,19.158-6.663C326.365,261.09,334.935,264.068,334.935,267.753z"/>
	<path fill="#EDAECF" d="M398.904,248.8c0,3.944-7.244,7.143-16.189,7.143c-8.939,0-16.19-3.199-16.19-7.143
		c0-3.945,7.251-7.142,16.19-7.142C391.66,241.658,398.904,244.855,398.904,248.8z"/>
	<path fill="#EDAECF" d="M200.823,414c7.361,0,13.333-2.985,13.333-6.666c0-3.685-5.971-6.671-13.333-6.671
		c-7.368,0-13.334,2.986-13.334,6.671C187.488,411.015,193.455,414,200.823,414z"/>
	<path fill="#EDAECF" d="M423.42,362.394c0,4.473-8.744,8.095-19.521,8.095c-10.785,0-19.522-3.622-19.522-8.095
		c0-4.47,8.737-8.094,19.522-8.094C414.676,354.3,423.42,357.924,423.42,362.394z"/>
	<path fill="#EDAECF" d="M375.795,394.541c0,4.2-8.329,7.609-18.606,7.609c-10.273,0-18.615-3.409-18.615-7.609
		c0-4.206,8.342-7.617,18.615-7.617C367.466,386.924,375.795,390.335,375.795,394.541z"/>
	<path fill="#EDAECF" d="M335.858,431.873c0,3.682-8.1,6.668-18.095,6.668c-9.988,0-18.087-2.986-18.087-6.668
		c0-3.68,8.099-6.664,18.087-6.664C327.759,425.209,335.858,428.193,335.858,431.873z"/>
</g>
<path fill="#A11D29" d="M440.954,272.115c-36.666,16.083-95.29,26.859-161.391,27.543c-66.101,0.688-124.808-8.87-161.604-24.192
	c-1.057,2.791-1.606,5.639-1.594,8.53c0.086,21.19,29.163,46.972,73.538,62.662c6.851-13.988,23.213-23.238,39.014-25.138
	c12.378-1.49,19.482,0.93,29.664,6.195c4.731,2.448,11.915,10.879,17.166,9.168c11.318-3.696,10.621-22.765,52.748-14.043
	c14.174,2.934,24.25,13.223,29.82,25.085c50.154-16.283,84.396-44.755,84.305-67.316
	C442.605,277.719,442.033,274.882,440.954,272.115z"/>
<path fill="#EC2227" d="M328.494,322.841c-42.127-8.722-41.43,10.347-52.748,14.043c-5.251,1.711-12.434-6.72-17.166-9.168
	c-10.181-5.266-17.286-7.686-29.664-6.195c-15.801,1.899-32.163,11.149-39.014,25.138c25.296,8.945,55.561,14.613,88.273,14.272
	c28.985-0.301,56.352-5.283,80.139-13.005C352.744,336.063,342.668,325.774,328.494,322.841z"/>
<g>
	<g>
		<path fill="#FBD3E0" d="M109.002,235.252c-5.589,4.016-9.321,9.128-10.632,15.97c-0.784,4.085,1.086,8.23,5.336,9.399
			c3.771,1.037,8.615-1.244,9.399-5.337c0.165-0.858,0.357-1.701,0.591-2.542c0.116-0.396,0.245-0.788,0.387-1.175
			c-0.604,1.734,0.041-0.016,0.217-0.355c0.192-0.346,0.396-0.683,0.615-1.014c1.054-1.66-1.036,1.15,0.31-0.352
			c0.288-0.311,0.589-0.607,0.901-0.895c1.536-1.465-1.244,0.813,0.59-0.504c3.376-2.425,4.997-6.605,2.742-10.453
			C117.5,234.655,112.392,232.817,109.002,235.252L109.002,235.252z"/>
	</g>
	<g>
		<path fill="#FBD3E0" d="M92.438,277.923c-9.564,24.408-7.345,52.866,0.01,77.541c6.871,23.047,20.85,47.854,43.844,57.884
			c8.938,3.9,16.726-9.262,7.712-13.194c-20.358-8.882-31.333-30.344-37.378-50.627c-6.447-21.622-7.792-46.256,0.547-67.542
			C110.772,272.798,95.99,268.854,92.438,277.923L92.438,277.923z"/>
	</g>
</g>
</svg>
