<?xml version="1.0" encoding="utf-8"?>
<!-- Generator: Adobe Illustrator 16.2.0, SVG Export Plug-In . SVG Version: 6.00 Build 0)  -->
<!DOCTYPE svg PUBLIC "-//W3C//DTD SVG 1.1//EN" "http://www.w3.org/Graphics/SVG/1.1/DTD/svg11.dtd">
<svg version="1.1" id="Layer_1" xmlns="http://www.w3.org/2000/svg" xmlns:xlink="http://www.w3.org/1999/xlink" x="0px" y="0px"
	 width="576px" height="576px" viewBox="0 0 576 576" enable-background="new 0 0 576 576" xml:space="preserve">
<g>
	<path fill="#8E2C8A" d="M449.755,460.987c-0.074-14.297-1.229-33.37-6.604-48.82c-3.718,3.202-7.604,6.283-11.633,9.246
		c3.855,14.504,3.728,32.713,3.619,42.785c-11.14,6.506-26.674,20.632-24.251,33.461c4.602,24.425,21.595-13.409,27.502-19.192
		c2.859,6.858-1.389,38.008,10.308,38.138c16.57,0.18,3.313-35.064,0.451-40.944c8.736,3.023,49.424,26.867,37.089-3.487
		C481.041,459.68,461.952,460.787,449.755,460.987z"/>
	<path fill="#8E2C8A" d="M127.658,460.979c-12.195-0.472-31.254-1.995-36.714,10.379c-13.003,30.078,28.192,7.132,37.001,4.307
		c-2.997,5.81-17.029,40.762-0.449,40.939c11.695,0.13,8.136-31.106,11.136-37.896c5.786,5.907,21.941,44.106,27.084,19.793
		c2.698-12.772-12.526-27.242-23.516-33.994c0.111-9.972,0.382-27.896,4.432-42.233c-4.021-2.911-7.892-5.945-11.61-9.096
		C129.567,428.354,128.043,446.953,127.658,460.979z"/>
	<path fill="#8E2C8A" d="M392.788,526.674c0.229-20.834-21.947-37.967-49.535-38.271c-11.064-0.124-21.314,2.487-29.645,6.995
		l0.339-30.829c-6.708,0.639-13.511,1.034-20.399,1.163l-0.666,60.61h0.024c0.053,0.013,81.752,17.74,99.842,1.099
		C392.939,527.261,392.785,526.931,392.788,526.674z M370.35,518.976c-0.822-1.491-2.101-2.901-3.285-3.698
		c-0.638-0.43-1.295-0.833-1.972-1.19c-0.153-0.035-1.299-0.515-1.548-0.595c-3.166-1-5.111-4.608-4.227-8.106
		c0.864-3.428,4.277-5.604,7.444-4.604c5.789,1.829,10.925,5.891,14.037,11.541C384.825,519.632,374.356,526.256,370.35,518.976z"/>
	<path fill="#8E2C8A" d="M263.506,464.614l-0.334,30.232c-8.228-4.692-18.42-7.528-29.489-7.651
		c-27.584-0.305-50.139,16.339-50.367,37.176c-0.004,0.25-0.167,0.582,0.023,0.768c17.671,17.084,99.844,1.098,99.844,1.098h0.027
		l0.668-60.5C276.999,465.621,270.204,465.239,263.506,464.614z M212.546,513.492c-0.249,0.08-1.395,0.56-1.547,0.595
		c-0.677,0.357-1.332,0.761-1.972,1.19c-1.184,0.797-2.462,2.207-3.284,3.698c-4.007,7.28-14.476,0.656-10.45-6.653
		c3.111-5.65,8.248-9.712,14.037-11.541c3.167-1,6.579,1.177,7.444,4.604C217.658,508.884,215.713,512.492,212.546,513.492z"/>
</g>
<path fill-rule="evenodd" clip-rule="evenodd" fill="#8CC542" d="M288.724,30.565c-11.701,0-28.702,63.753-32.278,109.291
	c10.446-1.258,21.145-1.914,32.04-1.914c10.875,0,21.556,0.652,31.981,1.908C316.833,93.797,300.509,30.565,288.724,30.565z
	 M284.871,100.437c0.177,6.173,2.395,30.752-6.354,31.134c-13.742,0.596-8.822-28.398-8.09-35.452
	c1.842-17.729,5.065-40.352,15.857-54.768C286.423,42.423,284.468,86.386,284.871,100.437z"/>
<path fill-rule="evenodd" clip-rule="evenodd" fill="#A3CF5F" d="M286.285,41.351c-10.792,14.416-14.016,37.038-15.857,54.768
	c-0.732,7.054-5.652,36.048,8.09,35.452c8.748-0.382,6.53-24.961,6.354-31.134C284.468,86.386,286.423,42.423,286.285,41.351z"/>
<path fill="#2AA7DF" d="M167.111,164.482c-4.088-3.173-8.316-6.454-11.625-11.119c-1.378-1.943-3.56-6.654-6.089-12.111
	c-7.355-15.872-17.433-37.609-27.278-37.609c-2.879,0-5.479,1.829-7.728,5.439c-8.771,14.086-4.958,43.5-3.124,57.647
	c1.65,12.71,4.294,25.981,10.342,36.369c0.24-0.249,0.484-0.495,0.727-0.744c13.157-13.481,28.919-25.314,46.702-35.036
	c0.332-0.179,0.663-0.36,0.994-0.539C169.076,166.009,168.098,165.248,167.111,164.482z M131.533,188.941
	c-9.051,3.379-14.029-23.931-14.909-29.811c-2.215-14.773-1.712-33.237,3.234-47.484c0.313,0.834,0.739,8.571,0.901,12.632
	c0.477,11.924,4.103,23.612,7.208,34.872C129.333,164.096,137.824,186.592,131.533,188.941z"/>
<path fill="#5FBFE2" d="M120.759,124.278c-0.162-4.061-0.588-11.798-0.901-12.632c-4.946,14.247-5.449,32.71-3.234,47.484
	c0.88,5.88,5.858,33.19,14.909,29.811c6.291-2.349-2.2-24.845-3.565-29.791C124.862,147.89,121.236,136.202,120.759,124.278z"/>
<path fill="#EF5E80" d="M461.695,109.637c-13.649-21.922-33.163,35.587-39.353,44.331c-4.114,5.802-9.567,9.482-14.408,13.351
	c17.784,9.723,33.549,21.558,46.704,35.04c6.17-10.688,8.529-24.206,10.033-35.764C466.447,152.887,470.268,123.405,461.695,109.637
	z M458.796,159.727c-0.88,5.88-5.858,33.19-14.909,29.811c-6.291-2.348,2.199-24.843,3.565-29.79
	c3.105-11.261,6.731-22.948,7.208-34.872c0.162-4.06,0.589-11.799,0.901-12.633C460.508,126.49,461.011,144.955,458.796,159.727z"/>
<path fill="#EB85A3" d="M454.66,124.876c-0.477,11.924-4.103,23.611-7.208,34.872c-1.366,4.946-9.856,27.442-3.565,29.79
	c9.051,3.379,14.029-23.931,14.909-29.811c2.215-14.772,1.712-33.237-3.234-47.484C455.249,113.077,454.822,120.816,454.66,124.876z
	"/>
<path fill="#F69322" d="M225.354,125.987c-6.194-8.74-25.709-66.254-39.359-44.331c-8.573,13.771-4.748,43.252-2.969,56.952
	c2.442,18.813,7.137,42.808,26.846,51.352c0.541,0.228,1.059,0.426,1.597,0.622c18.571,6.514,40.055-11.383,39.782-30.717
	C251.004,141.405,234.708,139.188,225.354,125.987z M213.801,180.368c-11.605,4.911-21.322-26.825-23.162-33.674
	c-4.623-17.216-6.066-39.065-1.144-56.388c0.512,0.952,1.961,10.044,2.64,14.819c1.994,14.03,8.134,27.459,13.536,40.436
	C208.045,151.261,221.865,176.956,213.801,180.368z"/>
<path fill="#EFB378" d="M192.135,105.125c-0.678-4.775-2.128-13.867-2.64-14.819c-4.922,17.323-3.479,39.172,1.144,56.388
	c1.839,6.85,11.556,38.585,23.162,33.674c8.064-3.413-5.756-29.107-8.13-34.808C200.269,132.583,194.128,119.154,192.135,105.125z"
	/>
<path fill="#6FCDEA" d="M390.974,81.656c-13.646-21.923-33.157,35.591-39.355,44.331c-9.35,13.201-25.648,15.418-25.896,33.877
	c-0.273,19.333,21.216,37.23,39.785,30.717c0.537-0.195,1.053-0.394,1.596-0.622c19.71-8.544,24.4-32.54,26.848-51.352
	C395.726,124.909,399.551,95.427,390.974,81.656z M383.297,149.929c-1.999,6.806-12.459,38.303-23.945,33.122
	c-7.981-3.602,6.438-28.963,8.944-34.606c5.706-12.847,12.16-26.128,14.483-40.107c0.79-4.759,2.453-13.814,2.986-14.754
	C390.279,111.018,388.323,132.828,383.297,149.929z"/>
<path fill="#9ADAEC" d="M382.779,108.337c-2.323,13.979-8.777,27.26-14.483,40.107c-2.507,5.643-16.926,31.004-8.944,34.606
	c11.486,5.182,21.946-26.316,23.945-33.122c5.026-17.102,6.982-38.911,2.469-56.346C385.232,94.523,383.569,103.579,382.779,108.337
	z"/>
<path fill="#8CC542" d="M461.988,284.456c-2.648-0.742-5.396-2.044-7.94-3.748c-0.685-1.668-2.258-2.817-4.077-3.267
	c-2.528-2.41-4.58-5.233-5.699-8.258c-2.704-7.323-14.51-4.155-11.775,3.251c1.759,4.757,4.655,9.144,8.27,12.884
	c-12.423,31.951-34.409,56.787-65.533,71.935c-26.57,12.93-59.476,18.89-88.853,15.854
	c-61.146-6.331-125.537-55.587-126.517-120.692c-0.003-0.187-0.044-0.346-0.06-0.522c5.366-1.827,10.856-3.326,16.457-4.502
	c7.702-1.619,4.437-13.388-3.246-11.774c-14.217,2.982-27.957,7.965-40.53,15.268c-6.804,3.947-0.665,14.506,6.161,10.544
	c2.994-1.739,6.049-3.318,9.159-4.761c3.651,69.313,70.326,120.217,135.863,128.313c32.777,4.052,67.952-3.428,97.726-17.183
	c32.609-15.071,55.827-42.32,69.396-74.837c2.55,1.391,5.221,2.506,7.951,3.272C466.333,298.367,469.556,286.58,461.988,284.456z"/>
<g>
	<path fill="#4AC6EE" d="M307.348,206.278c-3.842-2.476-8.18-4.155-12.835-4.847c-17.397-2.586-33.564,8.914-36.807,26.191
		c-0.075,0.403-0.144,0.822-0.205,1.234c-0.753,5.051-0.292,10.083,1.236,14.8c1.897-3.192,4.877-5.561,8.328-6.667
		c-0.321-2.172-0.337-4.427,0.005-6.714c1.856-12.511,13.505-21.142,26.021-19.278c2.012,0.298,3.91,0.874,5.695,1.642
		c0.783-1.491,1.955-2.904,3.487-4.063C303.873,207.365,305.633,206.602,307.348,206.278z"/>
	<path fill="#4AC6EE" d="M321.938,238.44c1.278-8.61-0.868-17.195-6.047-24.188c-0.011-0.012-0.021-0.024-0.032-0.038
		c-0.522,2.342-2.036,4.722-4.392,6.504c-0.66,0.5-1.348,0.914-2.047,1.262c2.591,4.367,3.755,9.62,2.95,15.037
		c-1.859,12.511-13.511,21.14-26.023,19.283c-0.342-0.052-0.67-0.138-1.007-0.205c-1.113,3.526-3.391,6.435-6.316,8.313
		c1.902,0.654,3.869,1.155,5.901,1.454C302.737,268.509,319.292,256.324,321.938,238.44z"/>
</g>
<path fill="#231F20" d="M312.371,237.017c0.805-5.417-0.359-10.67-2.95-15.037c-3.977,1.983-8.363,1.554-10.526-1.297
	c-1.653-2.188-1.575-5.252-0.108-8.044c-1.785-0.769-3.684-1.344-5.695-1.642c-12.516-1.864-24.165,6.767-26.021,19.278
	c-0.342,2.288-0.326,4.542-0.005,6.714c2.042-0.654,4.246-0.883,6.497-0.547c8.059,1.195,13.592,8.912,12.355,17.236
	c-0.125,0.837-0.331,1.638-0.576,2.416c0.337,0.067,0.665,0.153,1.007,0.205C298.86,258.157,310.512,249.528,312.371,237.017z"/>
<path fill="#E3EDEF" d="M279.27,314.855c34.028,5.068,65.719-18.258,71.079-52.164c-8.321,30.048-37.925,49.879-69.554,45.18
	c-34.221-5.093-57.835-36.961-52.75-71.181c0.029-0.192,0.07-0.379,0.101-0.574c-0.677,2.459-1.234,4.977-1.619,7.568
	C221.436,277.903,245.057,309.771,279.27,314.855z"/>
<g>
	<path fill="#FFFFFF" d="M167.113,314.55c-6.934,10.059-21.934,33.442-16.481,40.121c5.739,7.027,34.153-4.46,44.25-8.851
		C184.125,336.673,174.679,326.172,167.113,314.55z"/>
	<path fill="#FFFFFF" d="M214.127,405.623c8.492,3.718,29.235-20.522,35.795-28.551c-13.574-4.699-26.698-11.14-38.766-19.077
		C210.055,365.224,204.993,401.614,214.127,405.623z"/>
	<path fill="#FFFFFF" d="M283.667,384.979c-3.509-0.434-7.02-0.996-10.523-1.671c2.163,8.414,11.382,41.92,21.071,42.052
		c9.178,0.135,18.777-29.682,21.801-39.913C305.157,386.378,294.287,386.292,283.667,384.979z"/>
	<path fill="#FFFFFF" d="M372.138,412.604c8.181-3.043,6.931-31.435,6.028-43.377c-12.643,5.578-26.177,10.018-40.049,12.936
		C344.291,390.658,363.487,415.821,372.138,412.604z"/>
	<path fill="#FFFFFF" d="M398.477,358.249c9.109,5.921,35.467,22.132,42.324,16.109c7.153-6.281-6.941-36.766-11.054-45.226
		C420.943,340.373,410.529,350.25,398.477,358.249z"/>
	<path fill="#FFFFFF" d="M280.795,307.871c31.629,4.699,61.232-15.132,69.554-45.18c0.03-0.192,0.065-0.382,0.095-0.571
		c5.093-34.225-18.522-66.088-52.742-71.18c-31.634-4.708-61.232,15.126-69.555,45.175c-0.031,0.195-0.072,0.382-0.101,0.574
		C222.96,270.91,246.574,302.778,280.795,307.871z M257.501,228.855c0.061-0.412,0.13-0.831,0.205-1.234
		c3.243-17.277,19.41-28.777,36.807-26.191c4.655,0.692,8.993,2.371,12.835,4.847c-1.715,0.324-3.475,1.087-5.074,2.297
		c-4.401,3.327-5.915,8.752-3.379,12.108c2.545,3.352,8.165,3.368,12.573,0.035c2.355-1.784,3.872-4.166,4.392-6.509
		c0,0.001,0,0.003,0,0.005c0.011,0.014,0.021,0.026,0.032,0.038c5.179,6.993,7.325,15.578,6.047,24.188
		c-2.646,17.884-19.201,30.068-37.013,27.422c-2.032-0.299-3.999-0.8-5.901-1.454c-0.003,0-0.003,0-0.003,0.003
		c3.574-2.294,6.205-6.119,6.896-10.732c1.236-8.324-4.297-16.042-12.355-17.236c-5.673-0.843-11.078,1.775-14.217,6.3
		c-0.306,0.44-0.697,1.063-0.608,0.914C257.209,238.938,256.748,233.907,257.501,228.855z"/>
</g>
<path fill="#D8E028" d="M390.213,158.63c-3.589,13.225-10.052,25.67-23.11,31.33c-0.543,0.228-1.059,0.426-1.596,0.622
	c-18.569,6.514-40.059-11.383-39.785-30.717c0.116-8.604,3.72-13.678,8.479-17.983c-14.715-2.573-30.011-3.94-45.716-3.94
	c-15.704,0-30.999,1.367-45.714,3.94c4.76,4.305,8.364,9.379,8.479,17.983c0.273,19.333-21.211,37.23-39.782,30.717
	c-0.538-0.195-1.056-0.394-1.597-0.622c-13.058-5.66-19.522-18.105-23.111-31.33c-64.042,28.015-107.361,81.652-107.361,143.235
	c0,90.528,93.611,163.917,209.086,163.917c115.478,0,209.087-73.389,209.087-163.917
	C497.572,240.283,454.254,186.646,390.213,158.63z M226.527,243.684c0.385-2.591,0.942-5.108,1.619-7.568
	c8.322-30.049,37.921-49.883,69.555-45.175c34.22,5.092,57.835,36.955,52.742,71.18c-0.029,0.189-0.064,0.379-0.095,0.571
	c-5.36,33.906-37.051,57.232-71.079,52.164C245.057,309.771,221.436,277.903,226.527,243.684z M139.624,396.371
	c-28.125-21.201-41.564-53.965-43.033-88.601c-1.109-26.152,2.654-55.157,15.198-78.526c4.772-8.89,18.276-0.991,13.507,7.895
	c-10.885,20.279-14.101,46.114-13.14,68.788c1.239,29.255,11.226,58.742,35.362,76.938
	C155.466,388.855,147.686,402.448,139.624,396.371z M171.413,420.319c-7.343,0.747-13.202-4.373-18.156-9.064
	c-3.096-2.93-2.953-8.108,0-11.06c3.075-3.075,7.966-2.93,11.06,0c0.872,0.824,1.737,1.662,2.644,2.448
	c0.437,0.389,0.881,0.766,1.336,1.132c-0.441-0.372-0.289-0.287,0.46,0.259c0.344,0.218,0.703,0.407,1.062,0.597
	c0.039,0.01,0.057,0.011,0.124,0.032c0.205-0.041,1.286,0.032,1.47,0.014c4.25-0.432,7.821,3.885,7.821,7.821
	C179.234,417.089,175.653,419.889,171.413,420.319z M458.74,296.231c-2.73-0.767-5.401-1.882-7.951-3.272
	c-5.453,13.064-12.491,25.258-21.042,36.177c4.112,8.46,18.207,38.941,11.054,45.223c-6.857,6.022-33.215-10.188-42.324-16.109
	c-5.375,3.565-11.067,6.767-17.084,9.547c-1.063,0.492-2.149,0.957-3.227,1.431c0.902,11.942,2.152,40.334-6.028,43.377
	c-8.65,3.218-27.847-21.945-34.021-30.441c0.006-0.003,0.012-0.003,0.018-0.007c-7.313,1.54-14.71,2.658-22.119,3.291
	c-3.023,10.231-12.623,40.048-21.801,39.913c-9.689-0.132-18.908-33.638-21.071-42.052c0.011,0,0.02,0.003,0.03,0.006
	c-7.833-1.509-15.635-3.605-23.293-6.257c0.014,0.003,0.028,0.009,0.042,0.016c-6.56,8.028-27.303,32.269-35.795,28.551
	c-9.135-4.009-4.072-40.399-2.971-47.628c0.012,0.009,0.026,0.019,0.039,0.024c-5.701-3.746-11.17-7.824-16.333-12.218
	c0.006,0.006,0.012,0.013,0.02,0.019c-10.097,4.391-38.511,15.878-44.25,8.851c-5.452-6.679,9.547-30.06,16.481-40.121
	c-11.13-17.094-18.189-36.619-19.309-57.884c-3.11,1.442-6.166,3.021-9.159,4.761c-6.826,3.962-12.965-6.597-6.161-10.544
	c12.574-7.303,26.313-12.286,40.53-15.268c7.683-1.613,10.948,10.155,3.246,11.774c-5.6,1.176-11.09,2.675-16.457,4.502
	c0.015,0.177,0.056,0.336,0.06,0.522c0.98,65.105,65.371,114.361,126.517,120.692c29.377,3.036,62.282-2.924,88.853-15.854
	c31.124-15.147,53.11-39.983,65.533-71.935c-3.614-3.74-6.511-8.127-8.27-12.884c-2.734-7.406,9.071-10.574,11.775-3.251
	c1.119,3.024,3.171,5.848,5.699,8.258c1.819,0.449,3.393,1.599,4.077,3.267c2.545,1.704,5.292,3.006,7.94,3.748
	C469.556,286.58,466.333,298.367,458.74,296.231z"/>
<g>
	<path fill="#D29AC1" d="M363.545,513.492c0.347,0.11,2.472,1.017,1.155,0.381c0.821,0.397,1.601,0.891,2.364,1.404
		c1.185,0.797,2.463,2.207,3.285,3.698c4.007,7.28,14.476,0.656,10.45-6.653c-3.112-5.65-8.248-9.712-14.037-11.541
		c-3.167-1-6.58,1.177-7.444,4.604C358.434,508.884,360.379,512.492,363.545,513.492L363.545,513.492z"/>
	<path fill="#D29AC1" d="M212.546,513.492c-0.347,0.11-2.472,1.017-1.155,0.381c-0.822,0.397-1.601,0.891-2.365,1.404
		c-1.184,0.797-2.462,2.207-3.284,3.698c-4.007,7.28-14.476,0.656-10.45-6.653c3.111-5.65,8.248-9.712,14.037-11.541
		c3.167-1,6.579,1.177,7.444,4.604C217.658,508.884,215.713,512.492,212.546,513.492L212.546,513.492z"/>
</g>
<g>
	<path fill="#EFEF9B" d="M111.789,229.245c-12.544,23.369-16.307,52.374-15.198,78.526c1.468,34.636,14.908,67.399,43.033,88.601
		c8.063,6.077,15.843-7.516,7.895-13.507c-24.136-18.195-34.124-47.683-35.362-76.938c-0.961-22.674,2.255-48.509,13.14-68.788
		C130.065,228.254,116.562,220.354,111.789,229.245L111.789,229.245z"/>
	<path fill="#EFEF9B" d="M171.413,404.677c-0.272,0.028-2.515-0.147-0.964,0.147c-0.871-0.288-0.968-0.289-0.293-0.004
		c-0.481-0.236-0.946-0.499-1.398-0.786c-0.749-0.546-0.901-0.631-0.46-0.259c-0.455-0.366-0.899-0.743-1.336-1.132
		c-0.907-0.786-1.772-1.624-2.644-2.448c-3.094-2.93-7.985-3.075-11.06,0c-2.953,2.951-3.096,8.13,0,11.06
		c4.954,4.691,10.813,9.812,18.156,9.064c4.24-0.431,7.821-3.23,7.821-7.821C179.234,408.562,175.663,404.245,171.413,404.677
		L171.413,404.677z"/>
</g>
</svg>
