<?xml version="1.0" encoding="utf-8"?>
<!-- Generator: Adobe Illustrator 16.2.0, SVG Export Plug-In . SVG Version: 6.00 Build 0)  -->
<!DOCTYPE svg PUBLIC "-//W3C//DTD SVG 1.1//EN" "http://www.w3.org/Graphics/SVG/1.1/DTD/svg11.dtd">
<svg version="1.1" id="Layer_1" xmlns="http://www.w3.org/2000/svg" xmlns:xlink="http://www.w3.org/1999/xlink" x="0px" y="0px"
	 width="576px" height="576px" viewBox="0 0 576 576" enable-background="new 0 0 576 576" xml:space="preserve">
<g>
	<path fill="#E2B7D5" d="M99.756,257.298c-8.756,2.372-17.473,5.818-25.09,10.57c-7.714,4.811-13.939,11.498-21.727,16.221
		c-3.82,2.313-7.986,3.895-12.463,4.623c-0.544,0.089-1.092,0.152-1.639,0.217c16.12,2.428,42.574-19.126,65.183-25.425
		c-0.303-2.342-0.577-4.699-0.81-7.077C102.053,256.699,100.901,256.988,99.756,257.298z"/>
	<path fill="#E2B7D5" d="M71.428,242.046c-13.282,1.46-26.033-1.854-38.905-4.346c14.921,11.397,22.552,34.224,1.571,48.372
		c1.434-0.055,2.866-0.144,4.291-0.297c4.647-0.509,8.885-2.14,12.821-4.465c7.84-4.623,14.08-11.33,21.729-16.22
		c7.466-4.772,16.211-8.11,24.793-10.585c1.712-0.494,3.447-0.926,5.193-1.329c-0.358-4.281-0.602-8.609-0.709-12.968
		C91.954,239.908,81.553,240.931,71.428,242.046z"/>
	<path fill="#E2B7D5" d="M103.228,213.905c-4.205-2.803-8.461-5.541-12.824-8.142c-13.746-8.179-28.814-15.598-45.188-17.903
		c-4.233-0.592-8.54-0.701-12.805-0.317c16.229,12.145,9.916,32.002-3.635,46.31c14.158,2.5,28.11,6.637,42.647,5.038
		c10.093-1.113,20.481-2.124,30.733-1.854C102.078,229.374,102.419,221.634,103.228,213.905z"/>
	<path fill="#E2B7D5" d="M35.385,184.173c11.03-0.309,22.034,2.527,32.165,6.485c12.86,5.027,24.734,12.03,36.096,19.549
		c0.411-3.299,0.911-6.593,1.504-9.873C82.986,185.708,54.15,172.52,35.385,184.173z"/>
	<path fill="#E2B7D5" d="M521.098,288.929c-0.547-0.065-1.096-0.128-1.639-0.217c-4.478-0.728-8.646-2.309-12.464-4.623
		c-7.789-4.723-14.014-11.41-21.728-16.221c-7.617-4.751-16.335-8.198-25.09-10.57c-1.317-0.357-2.645-0.68-3.978-0.984
		c-0.275,2.355-0.585,4.698-0.926,7.021C478.023,269.398,504.824,291.381,521.098,288.929z"/>
	<path fill="#E2B7D5" d="M527.41,237.7c-12.872,2.493-25.621,5.807-38.905,4.346c-10.187-1.122-20.649-2.149-30.967-1.834
		c-0.207,4.321-0.539,8.612-0.978,12.859c1.899,0.429,3.785,0.897,5.646,1.433c8.581,2.476,17.326,5.813,24.791,10.585
		c7.65,4.89,13.891,11.597,21.731,16.22c3.935,2.325,8.173,3.956,12.821,4.465c1.424,0.153,2.854,0.242,4.29,0.297
		C504.858,271.923,512.489,249.097,527.41,237.7z"/>
	<path fill="#E2B7D5" d="M527.521,187.543c-4.264-0.384-8.572-0.275-12.803,0.317c-16.375,2.306-31.444,9.725-45.188,17.903
		c-4.204,2.505-8.308,5.136-12.362,7.833c0.626,7.827,0.763,15.673,0.5,23.442c10.288-0.277,20.714,0.734,30.844,1.852
		c14.535,1.599,28.487-2.539,42.646-5.038C517.605,219.545,511.293,199.688,527.521,187.543z"/>
	<path fill="#E2B7D5" d="M524.547,184.173c-18.549-11.52-46.94,1.237-69,15.659c0.521,3.326,0.947,6.669,1.282,10.017
		c11.197-7.382,22.896-14.244,35.555-19.191C502.514,186.7,513.518,183.865,524.547,184.173z"/>
</g>
<g>
	<path fill="#915C93" d="M67.55,190.658c-10.131-3.958-21.135-6.793-32.165-6.485c-1.3,0.807-2.553,1.736-3.751,2.79
		c0.27,0.191,0.519,0.387,0.777,0.58c4.265-0.384,8.572-0.275,12.805,0.317c16.374,2.306,31.442,9.725,45.188,17.903
		c4.363,2.601,8.62,5.338,12.824,8.142c0.128-1.233,0.265-2.465,0.418-3.698C92.284,202.688,80.41,195.685,67.55,190.658z"/>
	<path fill="#915C93" d="M71.423,238.891c-14.537,1.599-28.489-2.539-42.647-5.038c-0.268,0.284-0.535,0.57-0.81,0.849
		c1.578,0.877,3.101,1.884,4.556,2.999c12.872,2.493,25.623,5.807,38.905,4.346c10.125-1.115,20.526-2.138,30.784-1.838
		c-0.026-1.057-0.045-2.113-0.056-3.171C91.904,236.767,81.516,237.777,71.423,238.891z"/>
	<path fill="#915C93" d="M97.728,254.504c-8.582,2.476-17.327,5.813-24.793,10.585c-7.649,4.89-13.889,11.597-21.729,16.22
		c-3.936,2.325-8.174,3.956-12.821,4.465c-1.425,0.153-2.857,0.242-4.291,0.297c-0.317,0.213-0.615,0.434-0.946,0.643
		c1.704,1.194,3.612,1.9,5.689,2.214c0.546-0.065,1.094-0.128,1.639-0.217c4.478-0.728,8.644-2.309,12.463-4.623
		c7.788-4.723,14.013-11.41,21.727-16.221c7.617-4.751,16.334-8.198,25.09-10.57c1.145-0.311,2.297-0.599,3.454-0.871
		c-0.106-1.079-0.198-2.166-0.289-3.252C101.175,253.578,99.44,254.011,97.728,254.504z"/>
	<path fill="#915C93" d="M524.547,184.173c-11.029-0.309-22.033,2.527-32.163,6.485c-12.658,4.948-24.357,11.81-35.555,19.191
		c0.123,1.248,0.241,2.497,0.339,3.747c4.055-2.696,8.158-5.327,12.362-7.833c13.744-8.179,28.813-15.598,45.188-17.903
		c4.23-0.592,8.539-0.701,12.803-0.317c0.26-0.193,0.508-0.389,0.778-0.58C527.102,185.909,525.848,184.98,524.547,184.173z"/>
	<path fill="#915C93" d="M531.158,233.853c-14.159,2.5-28.111,6.637-42.646,5.038c-10.13-1.118-20.556-2.129-30.844-1.852
		c-0.036,1.06-0.077,2.118-0.13,3.173c10.317-0.315,20.78,0.712,30.967,1.834c13.284,1.46,26.033-1.854,38.905-4.346
		c1.457-1.115,2.98-2.122,4.556-2.999C531.692,234.422,531.426,234.137,531.158,233.853z"/>
	<path fill="#915C93" d="M525.84,286.072c-1.436-0.055-2.866-0.144-4.29-0.297c-4.648-0.509-8.887-2.14-12.821-4.465
		c-7.841-4.623-14.081-11.33-21.731-16.22c-7.465-4.772-16.21-8.11-24.791-10.585c-1.86-0.536-3.746-1.004-5.646-1.433
		c-0.113,1.083-0.233,2.164-0.36,3.243c1.333,0.304,2.66,0.626,3.978,0.984c8.755,2.372,17.473,5.818,25.09,10.57
		c7.714,4.811,13.938,11.498,21.728,16.221c3.818,2.313,7.986,3.895,12.464,4.623c0.543,0.089,1.092,0.152,1.639,0.217
		c2.077-0.314,3.982-1.02,5.688-2.214C526.455,286.505,526.156,286.285,525.84,286.072z"/>
</g>
<g>
	<path fill="#E2B7D5" d="M205.003,507.813c5.26-6.466,11.449-11.96,19.637-14.583c8.248-2.647,17.48-1.545,25.853-0.155
		c4.304,0.707,6.219-5.645,1.887-6.36c-9.838-1.631-19.752-2.553-29.488,0.113c-9.982,2.739-17.512,9.905-23.75,17.582
		C196.417,507.76,202.315,511.109,205.003,507.813L205.003,507.813z"/>
	<path fill="#E2B7D5" d="M362.131,509.547c-5.116-6.585-11.187-12.211-19.317-15.018c-8.182-2.827-17.439-1.928-25.84-0.725
		c-4.313,0.617-6.093-5.775-1.744-6.397c9.873-1.417,19.803-2.116,29.476,0.764c9.922,2.957,17.293,10.288,23.362,18.101
		C370.716,509.679,364.739,512.896,362.131,509.547L362.131,509.547z"/>
</g>
<g>
	<path fill="#8E2C8A" d="M420.625,463.471c-0.051-9.61-0.68-21.766-3.205-32.921c-3.432,2.179-7.032,4.271-10.788,6.275
		c1.767,10.738,1.675,22.371,1.6,29.367c-9.445,5.517-22.615,17.493-20.562,28.37c3.9,20.709,18.31-11.369,23.317-16.272
		c2.425,5.816-1.177,32.227,8.739,32.336c14.049,0.153,2.81-29.729,0.383-34.715c7.407,2.563,41.904,22.779,31.446-2.957
		C447.151,462.361,430.965,463.302,420.625,463.471z"/>
	<path fill="#8E2C8A" d="M278.848,464.493c-5.452-0.059-10.843-0.26-16.17-0.581l-0.25,22.611
		c-6.977-3.979-15.618-6.382-25.002-6.487c-23.388-0.258-42.512,13.854-42.705,31.52c-0.003,0.212-0.142,0.493,0.02,0.652
		c14.982,14.483,84.655,0.929,84.655,0.929h0.022l0.536-48.639C279.584,464.495,279.218,464.498,278.848,464.493z M250.492,493.074
		c-8.372-1.39-17.604-2.492-25.853,0.155c-8.188,2.623-14.377,8.117-19.637,14.583c-2.688,3.297-8.586-0.053-5.862-3.403
		c6.239-7.677,13.769-14.843,23.75-17.582c9.736-2.666,19.65-1.744,29.488-0.113C256.711,487.43,254.796,493.781,250.492,493.074z"
		/>
	<path fill="#8E2C8A" d="M372.324,513.51c0.194-17.666-18.607-32.191-41.999-32.449c-9.382-0.105-18.071,2.109-25.135,5.931
		l0.257-23.285c-5.687,0.4-11.452,0.659-17.293,0.759l-0.537,48.764h0.021c0.044,0.01,69.314,15.04,84.652,0.931
		C372.452,514.006,372.322,513.727,372.324,513.51z M362.131,509.547c-5.116-6.585-11.187-12.211-19.317-15.018
		c-8.182-2.827-17.439-1.928-25.84-0.725c-4.313,0.617-6.093-5.775-1.744-6.397c9.873-1.417,19.803-2.116,29.476,0.764
		c9.922,2.957,17.293,10.288,23.362,18.101C370.716,509.679,364.739,512.896,362.131,509.547z"/>
	<path fill="#8E2C8A" d="M147.532,460.465c-10.34-0.401-26.501-1.691-31.129,8.8c-11.024,25.501,23.903,6.046,31.373,3.65
		c-2.541,4.925-14.438,34.562-0.382,34.711c9.917,0.111,6.898-26.374,9.442-32.131c4.906,5.008,18.604,37.396,22.964,16.782
		c2.288-10.83-10.62-23.098-19.938-28.822c0.066-5.936,0.2-15.201,1.458-24.401c-3.836-1.87-7.536-3.826-11.083-5.865
		C148.414,442.66,147.751,452.445,147.532,460.465z"/>
</g>
<path fill="#5CA6D6" d="M424.909,266.431c-0.597-4.76-3.239-28.948-13.998-20.212c-4.633,3.762-7.755,9.087-11.24,13.833
	c-8.798,11.976-23.196,18.703-36.447,24.648c-32.991,14.801-73.479,20.626-109.313,15.355c-35.543-5.229-67.742-22.635-97.97-41.19
	c-8.543-5.244-20.291-12.268-21.818,2.422c-1.363,13.104,1.548,28.353,4.769,41.009c8.735,34.326,31.121,65.391,57.991,87.972
	c28.41,23.875,61.413,37.023,92.926,37.024c1.432,0,2.877-0.026,4.305-0.078c20.453-0.759,40.225-6.813,58.77-17.993
	c22.875-13.791,42.938-35.189,56.495-60.257c6.781-12.537,11.77-25.713,14.501-39.719
	C426.7,294.771,426.722,280.967,424.909,266.431z M342.759,397.261c-14.826,8.068-31.58,13.084-49.592,13.465
	c-30.41,0.637-59.269-12.029-82.353-30.605c-28.805-23.18-48.616-55.562-51.208-82.812c-0.417-4.256-0.387-8.466,0.028-12.574
	c2.801,2.104,5.74,4.131,8.809,6.082c29.867,18.986,71.881,30.461,117.359,29.51c45.935-0.981,85.929-14.437,112.039-34.938
	c2.399-1.882,4.688-3.82,6.846-5.817c1.212,4.095,2.027,8.264,2.429,12.539C410.56,328.258,384.194,374.709,342.759,397.261z"/>
<g>
	<path fill="#9A1E25" d="M274.345,358.057l-16.225-34.982l-12.381,17.438l0,0c6,1.094,10.764,5.08,17.023,11.619
		c3.853,4.02,10.131,17.075,14.005,15.001c6.923-3.672,6.537-23.664,25.101-20.916L288.62,326.53L274.345,358.057z"/>
	<path fill="#9A1E25" d="M203.246,346.739l-1.083-34.409l-18.459,27.038l-15.261-48.552c-3.068-1.951-6.007-3.979-8.809-6.082
		c-0.415,4.108-0.444,8.318-0.028,12.574c2.591,27.25,22.402,59.632,51.208,82.812c0.108-0.675,0.199-1.246,0.217-1.408
		c2.562-19.717,12.296-32.831,23.185-37.024l-8.935-22.048L203.246,346.739z"/>
	<path fill="#9A1E25" d="M407.115,292.109c-0.401-4.275-1.217-8.444-2.429-12.539c-2.157,1.997-4.446,3.935-6.846,5.817
		l1.477,27.163l-13.911-9.357l2.32,36.859l-33.438-28.911l1.658,39.668l-33.492-24.846l-10.742,23.209l0,0
		c1.342,0.567,2.748,1.215,4.228,1.955c11.963,5.976,21.553,26.394,26.819,46.133C384.194,374.709,410.56,328.258,407.115,292.109z"
		/>
</g>
<path fill="#EC2227" d="M301.868,346.217L301.868,346.217c-18.564-2.748-18.178,17.244-25.101,20.916
	c-3.875,2.074-10.153-10.981-14.005-15.001c-6.259-6.539-11.023-10.525-17.023-11.619l-7.638,10.761l-3.885-9.586l0,0
	c-10.889,4.193-20.623,17.308-23.185,37.024c-0.018,0.162-0.108,0.733-0.217,1.408c23.084,18.576,51.942,31.242,82.353,30.605
	c18.012-0.381,34.766-5.396,49.592-13.465c-5.267-19.739-14.856-40.157-26.819-46.133c-1.479-0.74-2.886-1.388-4.228-1.955
	l-3.203,6.916L301.868,346.217z"/>
<path fill="#915B93" d="M354.006,179.648c-6.779-14.279-17.434-26.206-30.813-34.491c-13.023-8.069-27.992-12.334-43.279-12.334
	c-12.19,0-23.996,2.669-35.093,7.935c-40.82,19.387-58.271,68.371-38.89,109.192c6.775,14.276,17.429,26.204,30.803,34.487
	c13.026,8.068,27.988,12.334,43.275,12.334c0.004,0,0.004,0,0.004,0c12.194,0,24.003-2.67,35.096-7.942
	C355.931,269.458,373.382,220.479,354.006,179.648z M310.055,278.173c-35.002,16.62-76.85,1.72-93.467-33.284
	c-16.614-35.004-1.703-76.851,33.294-93.471c35-16.613,76.852-1.71,93.466,33.288C359.957,219.718,345.057,261.558,310.055,278.173z
	"/>
<path fill="#B596C5" d="M288.269,214.698c-15.196,0-27.557,11.352-27.557,25.306c0,13.951,12.361,25.299,27.557,25.299
	c15.197,0,27.559-11.348,27.559-25.299C315.827,226.05,303.466,214.698,288.269,214.698z M288.269,258.575
	c-4.983,0-9.546-1.623-13.094-4.314c-3.694,1.199-7.092,0.725-8.039-1.304c-0.755-1.612,0.239-3.786,2.335-5.648
	c-1.058-2.244-1.648-4.713-1.648-7.307c0-10.261,9.153-18.575,20.446-18.575c5.116,0,9.779,1.718,13.365,4.537
	c4.215-0.744,8.227,1.378,9.227,5.022c0.701,2.552-0.251,5.209-2.254,7.098c0.072,0.63,0.109,1.27,0.109,1.917
	C308.716,250.257,299.563,258.575,288.269,258.575z"/>
<path fill="#231F20" d="M308.606,238.084c-1.063,1.005-2.42,1.795-3.993,2.228c-4.517,1.239-9.053-0.921-10.125-4.831
	c-1.072-3.905,1.724-8.076,6.241-9.315c0.301-0.083,0.604-0.148,0.904-0.202c-3.586-2.819-8.249-4.537-13.365-4.537
	c-11.292,0-20.446,8.313-20.446,18.575c0,2.594,0.59,5.063,1.648,7.307c0.963-0.855,2.16-1.646,3.527-2.285
	c4.334-2.027,8.739-1.762,9.838,0.593c1.1,2.358-1.513,5.906-5.854,7.935c-0.604,0.282-1.208,0.515-1.806,0.709
	c3.547,2.691,8.11,4.314,13.094,4.314c11.294,0,20.447-8.318,20.447-18.573C308.716,239.354,308.679,238.715,308.606,238.084z"/>
<g>
	<path fill="#FFFFFF" d="M385.406,303.193l13.911,9.357l-1.477-27.163c-26.109,20.502-66.104,33.957-112.039,34.938
		c-45.478,0.951-87.492-10.523-117.359-29.51l15.261,48.552l18.459-27.038l1.083,34.409l22.036-27.1l8.935,22.048l3.885,9.586
		l7.638-10.761l12.381-17.438l16.225,34.982l14.275-31.526l13.248,19.687l6.641,9.872l3.203-6.916l10.742-23.209l33.492,24.846
		l-1.658-39.668l33.438,28.911L385.406,303.193z"/>
	<path fill="#FFFFFF" d="M343.348,184.707c-16.614-34.999-58.466-49.901-93.466-33.288c-34.998,16.62-49.909,58.466-33.294,93.471
		c16.617,35.003,58.465,49.904,93.467,33.284C345.057,261.558,359.957,219.718,343.348,184.707z M223.956,249.319
		c-17.932-26.847-4.652-63.568,3.632-73.539c8.275-9.978,29.541-24.989,36.812-24.693c-23.298,10.552-47.356,56.207-21.777,94.511
		c13.063,19.565,32.994,33.869,50.455,34.578C271.159,282.975,241.882,276.177,223.956,249.319z M288.269,265.303
		c-15.196,0-27.557-11.348-27.557-25.299c0-13.954,12.361-25.306,27.557-25.306c15.197,0,27.559,11.352,27.559,25.306
		C315.827,253.955,303.466,265.303,288.269,265.303z"/>
	<path fill="#FFFFFF" d="M282.835,245.617c-1.099-2.354-5.504-2.62-9.838-0.593c-1.367,0.64-2.563,1.43-3.527,2.285
		c-2.096,1.862-3.09,4.036-2.335,5.648c0.947,2.029,4.345,2.503,8.039,1.304c0.598-0.194,1.202-0.427,1.806-0.709
		C281.322,251.522,283.935,247.975,282.835,245.617z"/>
	<path fill="#FFFFFF" d="M310.86,230.986c-1-3.644-5.012-5.766-9.227-5.022c-0.301,0.054-0.604,0.119-0.904,0.202
		c-4.518,1.24-7.313,5.41-6.241,9.315c1.072,3.909,5.608,6.069,10.125,4.831c1.573-0.433,2.93-1.223,3.993-2.228
		C310.609,236.196,311.562,233.539,310.86,230.986z"/>
</g>
<path fill-rule="evenodd" clip-rule="evenodd" fill="#E7E6E6" d="M264.399,151.087c-7.271-0.296-28.536,14.715-36.812,24.693
	c-8.284,9.97-21.563,46.692-3.632,73.539c17.926,26.858,47.204,33.656,69.121,30.858c-17.461-0.709-37.391-15.013-50.455-34.578
	C217.043,207.294,241.101,161.64,264.399,151.087L264.399,151.087z"/>
<g>
	<path fill="#E2B7D5" d="M251.693,97.316c-52.463-1.946-104.172,33.204-122.492,82.161c-4.505,12.041,14.729,17.19,19.183,5.291
		c15.272-40.813,60.199-69.156,103.31-67.557C264.527,117.686,264.482,97.79,251.693,97.316L251.693,97.316z"/>
	<path fill="#E2B7D5" d="M139.859,212.569c-0.027-1.006-0.051-2.005,0.051-3.006c-0.118,0.881-0.237,1.763-0.355,2.645
		c0.143-1.025,0.446-1.976,0.847-2.928c-0.334,0.791-0.669,1.583-1.003,2.375c0.067-0.146,0.133-0.292,0.2-0.441
		c1.147-2.539,1.77-4.876,1.002-7.665c-0.684-2.486-2.348-4.642-4.571-5.944c-2.297-1.346-5.098-1.709-7.665-1.003
		c-2.268,0.625-4.937,2.342-5.945,4.572c-0.781,1.728-1.663,3.518-2.002,5.407c-0.368,2.048-0.507,3.941-0.454,5.988
		c0.142,5.418,4.417,9.946,9.947,9.946C135.226,222.516,140.001,217.99,139.859,212.569L139.859,212.569z"/>
</g>
<g>
	<path fill="#F69322" d="M121.783,117.579c8.447-0.636,17.115-3.523,24.208-7.452c-7.792-16.007-15.62-30.027-23.332-28.459
		c-7.067,1.438-15.636,17.19-19.467,34.959C109.142,117.357,115.859,118.025,121.783,117.579z"/>
	<path fill="#F69322" d="M149.405,118.804c-6.752,3.61-14.723,6.437-22.735,7.554c-7.836,1.091-17.056,0.759-25.034-0.162
		c-0.64,5.916-0.653,11.812,0.173,17.262c7.615,1.18,16.387,1.847,23.974,1.275c0.344-0.026,0.686-0.072,1.029-0.105
		C132.965,135.318,140.453,126.633,149.405,118.804z"/>
	<path fill="#F69322" d="M104.461,153.168c1.321,3.146,3.067,5.983,5.326,8.361c1.484,1.563,3.526,2.729,5.954,3.548
		c1.618-3.697,3.386-7.342,5.336-10.912C115.479,154.227,109.702,153.814,104.461,153.168z"/>
	<path fill="#F69322" d="M456.74,116.626c-3.831-17.769-12.4-33.521-19.467-34.959c-7.71-1.568-15.54,12.452-23.332,28.459
		c7.093,3.929,15.76,6.816,24.207,7.452C444.073,118.025,450.789,117.357,456.74,116.626z"/>
	<path fill="#F69322" d="M435.427,144.803c7.287,0.412,15.503-0.23,22.698-1.345c0.827-5.45,0.811-11.346,0.174-17.262
		c-7.981,0.921-17.2,1.253-25.036,0.162c-5.942-0.828-11.86-2.604-17.28-4.935C423.658,128.602,430.09,136.457,435.427,144.803z"/>
	<path fill="#F69322" d="M450.146,161.529c2.26-2.377,4.002-5.215,5.325-8.361c-4.614,0.568-9.643,0.958-14.603,1.002
		c1.772,3.379,3.383,6.823,4.848,10.319C447.479,163.729,448.985,162.752,450.146,161.529z"/>
</g>
<g>
	<path fill="#EB272A" d="M145.991,110.126c-7.092,3.929-15.76,6.816-24.208,7.452c-5.924,0.446-12.641-0.222-18.591-0.952
		c-0.679,3.15-1.21,6.36-1.557,9.569c7.978,0.921,17.198,1.253,25.034,0.162c8.012-1.117,15.983-3.944,22.735-7.554
		c0.176-0.154,0.351-0.309,0.529-0.463C148.621,115.587,147.307,112.83,145.991,110.126z"/>
	<path fill="#EB272A" d="M125.783,144.733c-7.587,0.571-16.359-0.096-23.974-1.275c0.524,3.456,1.398,6.721,2.653,9.71
		c5.24,0.646,11.017,1.059,16.616,0.997c1.771-3.238,3.677-6.422,5.734-9.536C126.469,144.662,126.127,144.707,125.783,144.733z"/>
	<path fill="#EB272A" d="M433.263,126.358c7.836,1.091,17.055,0.759,25.036-0.162c-0.349-3.209-0.878-6.419-1.559-9.569
		c-5.951,0.73-12.667,1.398-18.592,0.952c-8.447-0.636-17.114-3.523-24.207-7.452c-1.069,2.196-2.138,4.432-3.204,6.669
		c1.808,1.509,3.559,3.052,5.245,4.628C421.402,123.754,427.32,125.53,433.263,126.358z"/>
	<path fill="#EB272A" d="M455.472,153.168c1.255-2.989,2.129-6.254,2.653-9.71c-7.195,1.115-15.411,1.757-22.698,1.345
		c1.959,3.059,3.773,6.184,5.442,9.367C445.829,154.126,450.857,153.736,455.472,153.168z"/>
</g>
<path fill="#A573B0" d="M441.199,317.248c29.945-77.018,40.238-235.824-156.63-238.449C85.684,76.145,86.203,238.67,117.479,316.156
	c-12.258,13.451-19.261,28.681-19.438,44.882c-0.62,56.033,80.333,102.353,180.807,103.455
	c100.479,1.106,182.429-43.417,183.045-99.449C462.082,347.854,454.573,331.585,441.199,317.248z M279.915,132.823
	c15.287,0,30.255,4.265,43.279,12.334c13.379,8.285,24.033,20.212,30.813,34.491c19.376,40.832,1.925,89.81-38.896,109.181
	c-11.093,5.272-22.901,7.942-35.096,7.942c0,0,0,0-0.004,0c-15.288,0-30.249-4.266-43.275-12.334
	c-13.374-8.284-24.028-20.211-30.803-34.487c-19.382-40.821-1.93-89.805,38.89-109.192
	C255.919,135.492,267.724,132.823,279.915,132.823z M129.201,179.478c18.32-48.958,70.029-84.107,122.492-82.161
	c12.789,0.474,12.834,20.37,0,19.895c-43.11-1.599-88.037,26.744-103.31,67.557C143.93,196.668,124.695,191.518,129.201,179.478z
	 M119.964,212.569c-0.054-2.047,0.086-3.94,0.454-5.988c0.339-1.889,1.221-3.679,2.002-5.407c1.008-2.23,3.677-3.948,5.945-4.572
	c2.567-0.706,5.368-0.343,7.665,1.003c2.223,1.302,3.887,3.458,4.571,5.944c0.635,2.306,0.312,4.304-0.465,6.362
	c0.088-0.211,0.178-0.42,0.267-0.631c-0.223,0.53-0.405,1.062-0.557,1.603c-0.009,0.562-0.001,1.123,0.014,1.687
	c0.142,5.421-4.633,9.946-9.947,9.946C124.382,222.516,120.106,217.988,119.964,212.569z M423.879,309.244
	c-2.731,14.006-7.72,27.182-14.501,39.719c-13.558,25.067-33.62,46.466-56.495,60.257c-18.545,11.181-38.316,17.234-58.77,17.993
	c-1.428,0.052-2.873,0.078-4.305,0.078c-31.513-0.001-64.516-13.149-92.926-37.024c-26.871-22.581-49.256-53.646-57.991-87.972
	c-3.221-12.656-6.132-27.904-4.769-41.009c1.527-14.689,13.275-7.666,21.818-2.422c30.228,18.555,62.426,35.962,97.97,41.19
	c35.833,5.271,76.321-0.555,109.313-15.355c13.251-5.945,27.649-12.672,36.447-24.648c3.485-4.745,6.607-10.071,11.24-13.833
	c10.759-8.735,13.401,15.453,13.998,20.212C426.722,280.967,426.7,294.771,423.879,309.244z"/>
</svg>
