<?xml version="1.0" encoding="utf-8"?>
<!-- Generator: Adobe Illustrator 16.2.0, SVG Export Plug-In . SVG Version: 6.00 Build 0)  -->
<!DOCTYPE svg PUBLIC "-//W3C//DTD SVG 1.1//EN" "http://www.w3.org/Graphics/SVG/1.1/DTD/svg11.dtd">
<svg version="1.1" id="Layer_1" xmlns="http://www.w3.org/2000/svg" xmlns:xlink="http://www.w3.org/1999/xlink" x="0px" y="0px"
	 width="576px" height="576px" viewBox="0 0 576 576" enable-background="new 0 0 576 576" xml:space="preserve">
<path fill-rule="evenodd" clip-rule="evenodd" fill="#A2CB9A" d="M428.947,214.859c-16.321-31.658-41.686-24.976-63.227-31.236
	c7.662-25.871,35.313-46.928,58.396-39.233c-29.127-25.674-57.345-27.152-83.444-4.659c6.928-36.175,17.525-73.069,42.724-93.656
	c-30.177,14.589-78.547,46.648-87.51,91.931c0,0-28.241-105.962-74.575-109.148c17.871,33.102,19.754,62.343,19.6,100.691
	c-41.37-49.424-94.475-54.76-141.049-26.543c34.464,2.362,100.084,37.198,131.729,88.516c5.213-4.463,11.08-8.328,17.568-11.409
	c10.763-5.107,22.212-7.696,34.036-7.696c14.826,0,29.344,4.137,41.975,11.962c12.975,8.035,23.31,19.603,29.885,33.452
	c0.488,1.033,0.939,2.074,1.382,3.117C379.308,210.479,402.676,205.754,428.947,214.859z"/>
<path fill="#B596C5" d="M291.298,251.825c-14.738,0-26.728,11.008-26.728,24.542c0,13.531,11.989,24.537,26.728,24.537
	s26.728-11.006,26.728-24.537C318.025,262.833,306.036,251.825,291.298,251.825z M291.297,294.379
	c-4.833,0-9.258-1.574-12.699-4.184c-3.583,1.163-6.877,0.703-7.796-1.266c-0.732-1.564,0.232-3.671,2.265-5.478
	c-1.026-2.175-1.598-4.569-1.598-7.086c0-9.952,8.877-18.016,19.829-18.016c4.961,0,9.486,1.666,12.964,4.4
	c4.087-0.722,7.977,1.336,8.948,4.871c0.679,2.475-0.245,5.053-2.187,6.885c0.07,0.611,0.105,1.232,0.105,1.859
	C311.128,286.313,302.251,294.379,291.297,294.379z"/>
<path fill="#231F20" d="M311.022,274.506c-1.032,0.974-2.347,1.74-3.873,2.159c-4.38,1.203-8.778-0.893-9.819-4.684
	c-1.04-3.787,1.672-7.833,6.053-9.035c0.293-0.081,0.585-0.144,0.878-0.196c-3.478-2.735-8.003-4.4-12.964-4.4
	c-10.952,0-19.829,8.063-19.829,18.016c0,2.517,0.572,4.911,1.598,7.086c0.935-0.829,2.095-1.596,3.42-2.216
	c4.203-1.965,8.477-1.708,9.541,0.576c1.067,2.287-1.467,5.727-5.677,7.694c-0.586,0.274-1.172,0.502-1.752,0.689
	c3.441,2.609,7.866,4.184,12.699,4.184c10.954,0,19.831-8.066,19.831-18.013C311.128,275.738,311.093,275.117,311.022,274.506z"/>
<g>
	<path fill="#FFFFFF" d="M344.717,222.736c-16.115-33.943-56.704-48.398-90.65-32.287c-33.942,16.119-48.404,56.706-32.291,90.656
		c16.117,33.949,56.704,48.4,90.651,32.28C346.375,297.271,360.826,256.694,344.717,222.736z M228.923,285.401
		c-17.392-26.038-4.512-61.653,3.521-71.322c8.027-9.677,28.651-24.237,35.703-23.949c-22.596,10.233-45.93,54.513-21.121,91.663
		c12.669,18.976,31.999,32.849,48.933,33.537C274.703,318.043,246.308,311.45,228.923,285.401z M291.298,300.904
		c-14.738,0-26.728-11.006-26.728-24.537c0-13.534,11.989-24.542,26.728-24.542s26.728,11.008,26.728,24.542
		C318.025,289.898,306.036,300.904,291.298,300.904z"/>
	<path fill="#FFFFFF" d="M286.027,281.812c-1.064-2.284-5.338-2.542-9.541-0.576c-1.326,0.62-2.486,1.387-3.42,2.216
		c-2.032,1.806-2.997,3.914-2.265,5.478c0.919,1.969,4.213,2.429,7.796,1.266c0.58-0.188,1.166-0.415,1.752-0.689
		C284.561,287.539,287.094,284.099,286.027,281.812z"/>
	<path fill="#FFFFFF" d="M313.209,267.622c-0.972-3.535-4.861-5.593-8.948-4.871c-0.293,0.052-0.585,0.115-0.878,0.196
		c-4.381,1.203-7.093,5.249-6.053,9.035c1.041,3.791,5.439,5.887,9.819,4.684c1.526-0.419,2.841-1.186,3.873-2.159
		C312.964,272.674,313.888,270.097,313.209,267.622z"/>
</g>
<path fill-rule="evenodd" clip-rule="evenodd" fill="#E7E6E6" d="M268.147,190.13c-7.052-0.288-27.676,14.271-35.703,23.949
	c-8.034,9.669-20.913,45.285-3.521,71.322c17.385,26.049,45.78,32.642,67.036,29.929c-16.934-0.688-36.264-14.561-48.933-33.537
	C222.217,244.643,245.551,200.363,268.147,190.13L268.147,190.13z"/>
<g>
	<path fill-rule="evenodd" clip-rule="evenodd" fill="#915B93" d="M234.379,419.639c-6.916,2.022-10.518,6.26-8.052,9.46
		c2.468,3.195,10.072,4.151,16.986,2.131c6.904-2.019,10.509-6.251,8.042-9.451C248.898,418.573,241.288,417.616,234.379,419.639z"
		/>
	<path fill-rule="evenodd" clip-rule="evenodd" fill="#915B93" d="M291.49,457.465c10.122-4.319,15.389-13.359,11.781-20.198
		c-3.613-6.841-14.744-8.885-24.858-4.568c-10.12,4.316-15.392,13.366-11.777,20.203
		C270.246,459.742,281.371,461.784,291.49,457.465L291.49,457.465z"/>
	<path fill-rule="evenodd" clip-rule="evenodd" fill="#915B93" d="M385.004,328.196c6.287-2.627,9.563-8.124,7.319-12.287
		c-2.241-4.16-9.162-5.404-15.446-2.777c-6.294,2.626-9.574,8.131-7.327,12.29C371.791,329.584,378.713,330.824,385.004,328.196
		L385.004,328.196z"/>
	<path fill="#915B93" d="M355.055,217.83c-6.575-13.849-16.91-25.417-29.885-33.452c-12.631-7.826-27.149-11.962-41.975-11.962
		c-11.823,0-23.272,2.589-34.036,7.696c-39.59,18.802-56.516,66.311-37.718,105.902c6.572,13.845,16.904,25.414,29.875,33.448
		c12.634,7.825,27.145,11.963,41.972,11.963c0.003,0,0.003,0,0.003,0c11.828,0,23.282-2.591,34.039-7.703
		C356.921,304.934,373.845,257.431,355.055,217.83z M312.427,313.386c-33.947,16.12-74.534,1.669-90.651-32.28
		c-16.114-33.95-1.651-74.537,32.291-90.656c33.947-16.111,74.535-1.657,90.65,32.287
		C360.826,256.694,346.375,297.271,312.427,313.386z"/>
	<g>
		<path fill="#915B93" d="M223.201,450.424c-12.718-20.956-23.123-41.358-41.873-42.389c-0.553-0.029-1.125-0.052-1.705-0.065
			c-3.491-10.607-10.751-23.032-14.645-22.321c-3.799,0.693-6.002,13.891-5.669,24.915c-1.003,0.28-2.007,0.586-3.009,0.917
			c-6.886-8.737-17.776-17.813-21.17-15.842c-3.362,1.951-0.913,15.284,3.18,25.577c-1.641,1.376-3.188,2.887-4.637,4.523
			c-8.437-5.88-18.815-10.545-21.333-8.119c-3.162,3.044,4.325,18.399,11.696,27.361c-0.408,1.856-0.732,3.787-0.94,5.819
			c-1.303,12.712,17.335,31.868,24.389,40.827c11.914,15.129,24.488,36.535,44.878,40.49c16.446,3.183,29.948-4.385,42.413-13.66
			C250.49,506.768,233.519,467.435,223.201,450.424z M219.164,506.233c-3.405,2.538-12.231,13.139-33.589,8.908
			c-8.387-1.66-45.844-47.601-44.931-56.483c2.558-24.952,27.514-30.807,40.944-30.069c13.189,0.724,20.505,15.073,29.445,29.807
			C218.288,470.354,230.219,498.014,219.164,506.233z"/>
		<path fill="#E4B8D5" d="M181.588,428.589c-13.43-0.737-38.386,5.117-40.944,30.069c-0.914,8.883,36.544,54.823,44.931,56.483
			c21.358,4.23,30.185-6.37,33.589-8.908c11.055-8.22-0.876-35.88-8.131-47.838C202.093,443.662,194.777,429.313,181.588,428.589z"
			/>
	</g>
	<g>
		<path fill="#915B93" d="M331.716,518.458c12.465,9.275,25.967,16.843,42.412,13.66c20.391-3.955,32.965-25.361,44.879-40.49
			c7.053-8.959,25.692-28.115,24.39-40.827c-0.209-2.032-0.533-3.963-0.942-5.819c7.373-8.962,14.859-24.317,11.697-27.361
			c-2.519-2.426-12.896,2.239-21.333,8.119c-1.448-1.637-2.995-3.147-4.638-4.523c4.094-10.293,6.543-23.626,3.182-25.577
			c-3.396-1.972-14.285,7.104-21.171,15.842c-1.004-0.331-2.007-0.637-3.009-0.917c0.332-11.024-1.869-24.222-5.669-24.915
			c-3.895-0.711-11.155,11.714-14.646,22.321c-0.581,0.014-1.15,0.036-1.704,0.065c-18.751,1.03-29.155,21.433-41.874,42.389
			C332.971,467.435,316,506.768,331.716,518.458z M355.458,458.396c8.939-14.733,16.256-29.083,29.445-29.807
			c13.429-0.737,38.385,5.117,40.942,30.069c0.914,8.883-36.543,54.823-44.93,56.483c-21.358,4.23-30.186-6.37-33.59-8.908
			C336.272,498.014,348.203,470.354,355.458,458.396z"/>
		<path fill="#E4B8D5" d="M384.903,428.589c13.429-0.737,38.385,5.117,40.942,30.069c0.914,8.883-36.543,54.823-44.93,56.483
			c-21.358,4.23-30.186-6.37-33.59-8.908c-11.054-8.22,0.877-35.88,8.132-47.838C364.397,443.662,371.714,429.313,384.903,428.589z"
			/>
	</g>
</g>
<path fill="#A573B0" d="M448.395,248.404c-27.488,20.518-38.636,19.054-46.885,17.467c-10.104-15.564-23.981-28.791-42.576-38.172
	c11.965,37.322-5.254,78.773-41.604,96.024c-10.757,5.112-22.211,7.703-34.039,7.703c0,0,0,0-0.003,0
	c-14.828,0-29.338-4.138-41.972-11.963c-12.971-8.034-23.303-19.604-29.875-33.448c-7.961-16.766-9.493-34.945-5.633-51.769
	c-17.934,11.975-30.826,28.143-39.733,46.528c-7.638,3.963-17.012,10.049-51.394-2.525c-38.089-13.933-53.746,9.807-27.38,43.75
	c12.206,15.71,38.951,22.777,62.6,21.909c-3.679,20.145-4.695,39.365-3.909,56.922c3.563,2.991,7.313,6.853,10.308,10.651
	c1.002-0.331,2.006-0.637,3.009-0.917c-0.333-11.024,1.87-24.222,5.669-24.915c3.894-0.711,11.154,11.714,14.645,22.321
	c0.581,0.014,1.152,0.036,1.705,0.065c18.75,1.03,29.155,21.433,41.873,42.389c9.117,15.03,23.41,47.471,15.781,62.891
	c27.807,3.123,59.325,1.935,87.308-3.229c-4.561-16.354,8.479-45.613,16.999-59.662c12.719-20.956,23.123-41.358,41.874-42.389
	c0.554-0.029,1.123-0.052,1.704-0.065c3.491-10.607,10.752-23.032,14.646-22.321c3.8,0.693,6.001,13.891,5.669,24.915
	c1.002,0.28,2.005,0.586,3.009,0.917c3.452-4.382,7.911-8.846,11.928-11.962c3.455-24.021,4.355-50.561,0.336-75.922
	c25.839-3.573,56.352-19.561,64.71-41.128C502.691,242.401,480.89,224.145,448.395,248.404z M170.776,362.01
	c0,3.505-2.925,6.431-6.431,6.431c-3.507,0-6.432-2.926-6.432-6.431c0-2.275,0-4.55,0-6.824c0-3.507,2.925-6.432,6.432-6.432
	c3.506,0,6.431,2.925,6.431,6.432C170.776,357.46,170.776,359.734,170.776,362.01z M195.698,271.515
	c-8.675,7.782-13.184,20.205-16.586,31.041c-3.414,10.871-6.281,22.186-6.868,33.607c-0.424,8.253-13.291,8.293-12.864,0
	c0.704-13.669,3.933-27.506,8.444-40.394c4.133-11.808,9.242-24.795,18.778-33.351C192.757,256.898,201.885,265.964,195.698,271.515
	z M243.313,431.229c-6.914,2.021-14.518,1.064-16.986-2.131c-2.466-3.2,1.136-7.438,8.052-9.46c6.909-2.022,14.52-1.065,16.977,2.14
	C253.822,424.979,250.217,429.211,243.313,431.229z M291.49,457.465c-10.119,4.319-21.244,2.277-24.854-4.563
	c-3.615-6.837,1.657-15.887,11.777-20.203c10.114-4.316,21.245-2.272,24.858,4.568C306.879,444.105,301.612,453.146,291.49,457.465z
	 M315.019,411.272c-8.908,3.7-18.632,5.533-28.733,4.673c-17.294-1.478-32.848-10.593-44.889-22.921
	c-15.815-16.194-25.561-37.936-25.161-55.244c0.061-2.649,0.369-5.234,0.903-7.739c15.982,15.782,41.816,27.324,71.169,29.83
	c29.354,2.499,55.621-4.592,72.257-17.592c0.421,2.584,0.611,5.211,0.549,7.863C360.587,372.929,341.389,400.315,315.019,411.272z
	 M385.004,328.196c-6.291,2.628-13.213,1.388-15.454-2.774c-2.247-4.159,1.033-9.664,7.327-12.29
	c6.284-2.627,13.205-1.383,15.446,2.777C394.567,320.072,391.291,325.569,385.004,328.196z"/>
<g>
	<g>
		<path fill="#D8AACA" d="M186.602,262.418c-9.537,8.556-14.645,21.543-18.778,33.351c-4.511,12.888-7.741,26.725-8.444,40.394
			c-0.427,8.293,12.439,8.253,12.864,0c0.587-11.422,3.455-22.736,6.868-33.607c3.402-10.836,7.911-23.259,16.586-31.041
			C201.885,265.964,192.757,256.898,186.602,262.418L186.602,262.418z"/>
	</g>
	<g>
		<path fill="#D8AACA" d="M157.913,355.186c0,2.274,0,4.549,0,6.824c0,3.505,2.925,6.431,6.432,6.431
			c3.506,0,6.431-2.926,6.431-6.431c0-2.275,0-4.55,0-6.824c0-3.507-2.925-6.432-6.431-6.432
			C160.838,348.754,157.913,351.679,157.913,355.186L157.913,355.186z"/>
	</g>
</g>
<path fill="#6E1222" d="M360.564,342.279c-16.636,13-42.903,20.091-72.257,17.592c-29.353-2.506-55.187-14.048-71.169-29.83
	c-0.535,2.505-0.842,5.09-0.903,7.739c-0.4,17.309,9.346,39.05,25.161,55.244c3.696-15.609,11.429-24.367,18.541-24.51
	c5.543-0.109,8.561,3.652,12.794,11.14c1.968,3.488,4.721,14.281,7.126,12.965c5.184-2.816,5.82-25.188,23.994-9.466
	c5.394,4.665,9.086,15.597,11.167,28.119c26.37-10.957,45.568-38.344,46.095-61.13C361.176,347.49,360.985,344.863,360.564,342.279z
	"/>
<path fill="#BE2330" d="M303.852,383.153c-18.174-15.722-18.811,6.649-23.994,9.466c-2.405,1.316-5.158-9.477-7.126-12.965
	c-4.233-7.487-7.25-11.249-12.794-11.14c-7.112,0.143-14.845,8.9-18.541,24.51c12.041,12.328,27.595,21.443,44.889,22.921
	c10.101,0.86,19.825-0.973,28.733-4.673C312.938,398.75,309.245,387.818,303.852,383.153z"/>
</svg>
