<?xml version="1.0" encoding="utf-8"?>
<!-- Generator: Adobe Illustrator 16.2.0, SVG Export Plug-In . SVG Version: 6.00 Build 0)  -->
<!DOCTYPE svg PUBLIC "-//W3C//DTD SVG 1.1//EN" "http://www.w3.org/Graphics/SVG/1.1/DTD/svg11.dtd">
<svg version="1.1" id="Layer_1" xmlns="http://www.w3.org/2000/svg" xmlns:xlink="http://www.w3.org/1999/xlink" x="0px" y="0px"
	 width="576px" height="576px" viewBox="0 0 576 576" enable-background="new 0 0 576 576" xml:space="preserve">
<g>
	<path fill="#D6DE2C" d="M162.56,120.024c-11.444,4.365-23.147,8.015-34.979,11.147c-0.552,10.883-0.2,22.33,1.21,33.409
		c14.449-3.362,29.435-7.735,41.955-15.02C166.094,140.387,163.838,130.051,162.56,120.024z"/>
	<path fill="#D6DE2C" d="M410.837,120.024c11.443,4.365,23.147,8.015,34.977,11.147c0.552,10.883,0.2,22.33-1.21,33.409
		c-14.448-3.362-29.435-7.735-41.952-15.02C407.303,140.387,409.557,130.051,410.837,120.024z"/>
</g>
<g>
	<path fill="#FBB041" d="M208.513,184.778c-3.385-1.502-7.097-3.453-10.958-6c-9.378,17.025-23.709,31.533-40.516,41.667
		c4.148,2.711,8.445,4.876,12.554,6.586C185.574,216.101,199.242,201.539,208.513,184.778z"/>
	<path fill="#FBB041" d="M174.553,155.987c-1.424-2.059-2.683-4.21-3.807-6.426c-12.52,7.284-27.505,11.657-41.955,15.02
		c0.501,3.942,1.143,7.831,1.922,11.637c15.993-3.835,32.246-8.82,46.274-16.883C176.168,158.253,175.355,157.146,174.553,155.987z"
		/>
	<path fill="#FBB041" d="M161.366,107.793c-10.714,4.241-21.646,7.798-32.728,10.848c-0.486,4.051-0.84,8.247-1.057,12.53
		c11.831-3.132,23.534-6.782,34.979-11.147C162.028,115.859,161.663,111.746,161.366,107.793z"/>
	<path fill="#FBB041" d="M364.882,184.778c3.385-1.502,7.097-3.453,10.959-6c9.377,17.025,23.708,31.533,40.515,41.667
		c-4.147,2.711-8.443,4.876-12.554,6.586C387.82,216.101,374.153,201.539,364.882,184.778z"/>
	<path fill="#FBB041" d="M398.842,155.987c1.425-2.059,2.685-4.21,3.81-6.426c12.518,7.284,27.504,11.657,41.952,15.02
		c-0.501,3.942-1.143,7.831-1.922,11.637c-15.991-3.835-32.244-8.82-46.273-16.883C397.227,158.253,398.041,157.146,398.842,155.987
		z"/>
	<path fill="#FBB041" d="M412.03,107.793c10.712,4.241,21.645,7.798,32.727,10.848c0.485,4.051,0.841,8.247,1.057,12.53
		c-11.829-3.132-23.533-6.782-34.977-11.147C411.367,115.859,411.732,111.746,412.03,107.793z"/>
</g>
<path fill="#BEDDB7" d="M333.224,205.819c-4.861-10.237-12.501-18.79-22.092-24.73c-9.339-5.786-20.073-8.844-31.034-8.844
	c-8.739,0-17.203,1.915-25.161,5.69c-29.268,13.9-41.782,49.022-27.885,78.292c4.858,10.236,12.497,18.789,22.086,24.729
	c9.34,5.786,20.067,8.844,31.029,8.844c0.002,0,0.002,0,0.002,0c8.745,0,17.212-1.915,25.167-5.695
	C334.604,270.215,347.117,235.096,333.224,205.819z M301.711,276.463c-25.098,11.918-55.104,1.233-67.019-23.864
	c-11.913-25.099-1.221-55.104,23.873-67.021c25.097-11.911,55.103-1.225,67.017,23.87
	C337.491,234.551,326.806,264.551,301.711,276.463z"/>
<path fill="#B596C5" d="M286.09,230.952c-10.896,0-19.76,8.138-19.76,18.144c0,10.003,8.863,18.14,19.76,18.14
	c10.896,0,19.759-8.137,19.759-18.14C305.85,239.09,296.986,230.952,286.09,230.952z M286.088,262.412
	c-3.571,0-6.844-1.164-9.388-3.093c-2.648,0.86-5.084,0.521-5.764-0.936c-0.541-1.156,0.172-2.715,1.674-4.05
	c-0.758-1.608-1.183-3.378-1.183-5.239c0-7.358,6.565-13.319,14.661-13.319c3.669,0,7.013,1.231,9.584,3.253
	c3.021-0.533,5.897,0.989,6.612,3.601c0.506,1.83-0.178,3.737-1.612,5.091c0.052,0.451,0.077,0.91,0.077,1.374
	C300.75,256.448,294.186,262.412,286.088,262.412z"/>
<path fill="#231F20" d="M300.673,247.721c-0.765,0.719-1.735,1.286-2.862,1.596c-3.24,0.89-6.493-0.661-7.262-3.462
	c-0.77-2.8,1.236-5.791,4.475-6.68c0.217-0.06,0.434-0.107,0.649-0.145c-2.571-2.021-5.915-3.253-9.584-3.253
	c-8.096,0-14.661,5.961-14.661,13.319c0,1.86,0.425,3.63,1.183,5.239c0.69-0.614,1.548-1.181,2.53-1.639
	c3.106-1.453,6.268-1.262,7.053,0.426c0.79,1.69-1.084,4.234-4.198,5.689c-0.432,0.203-0.866,0.369-1.295,0.509
	c2.544,1.929,5.817,3.093,9.388,3.093c8.097,0,14.662-5.964,14.662-13.317C300.75,248.631,300.725,248.172,300.673,247.721z"/>
<path fill-rule="evenodd" clip-rule="evenodd" fill="#E7E6E6" d="M268.974,185.342c-5.213-0.213-20.46,10.551-26.395,17.706
	c-5.939,7.147-15.461,33.478-2.603,52.728c12.853,19.258,33.846,24.131,49.559,22.126c-12.519-0.508-26.809-10.765-36.175-24.793
	C235.019,225.642,252.27,192.908,268.974,185.342L268.974,185.342z"/>
<g>
	<path fill="#E2B7D5" d="M136.892,181.36c0.998,12.548,8.44,23.705,18.858,30.546c4.602,3.022,8.861-4.35,4.295-7.349
		c-7.741-5.083-13.896-13.804-14.643-23.198C144.97,175.928,136.456,175.885,136.892,181.36L136.892,181.36z"/>
	<path fill="#E2B7D5" d="M425.393,182.158c-2.603,10.311-7.614,17.363-17.28,21.94c-4.958,2.348-0.637,9.683,4.295,7.348
		c11.533-5.46,18.1-14.781,21.191-27.026C434.942,179.097,426.736,176.84,425.393,182.158L425.393,182.158z"/>
	<path fill="#E2B7D5" d="M145.823,80.061c-8.389,6.141-10.832,17.377-10.954,27.265c-0.068,5.49,8.442,5.484,8.51,0
		c0.08-6.387,1.123-15.805,6.739-19.917C154.497,84.204,150.259,76.814,145.823,80.061L145.823,80.061z"/>
	<path fill="#E2B7D5" d="M420.98,85.166c3.144,7.287,6.536,14.384,6.697,22.434c0.109,5.48,8.619,5.491,8.51,0
		c-0.193-9.653-4.091-17.996-7.858-26.729C426.16,75.844,418.831,80.183,420.98,85.166L420.98,85.166z"/>
</g>
<path fill="#8C182A" d="M363.744,294.334c-0.305-3.018-0.885-5.971-1.714-8.851c-4.233,4.317-9.206,8.29-14.809,11.836
	c4.261,6.538,3.666,28.298-2.758,31.466c-6.91,3.408-27.192-11.257-27.604-18.311c-10.174,2.809-21.234,4.545-32.895,4.975
	c-12.01,0.446-23.665-0.533-34.604-2.705c-0.993,7.436-18.618,22.798-25.577,20.204c-6.621-2.473-9.421-23.521-6.057-30.741
	c-6.358-3.133-12.168-6.742-17.296-10.76c-0.238,2.92-0.219,5.895,0.086,8.91c2.134,21.08,17.917,46.319,40.083,62.519
	c0.367-3.887,1.068-7.684,2.133-11.288c4.695-15.859,19.658-25.757,33.433-10.729c2.577,2.813,6.832,11.992,9.365,10.498
	c5.469-3.221,3.72-23.127,25.705-11.71c8.739,4.538,14.092,15.438,16.495,26.093C351.621,348.455,366.154,318.112,363.744,294.334z"
	/>
<path fill="#A11D2A" d="M284.642,354.696c-0.34-0.262-0.536-0.396-0.536-0.396s0.001,0.221,0.037,0.625
	c0.045,0.399,0.075,0.999,0.189,1.731c0.121,0.739,0.205,1.62,0.34,2.59c1.068,7.624,2.337,15.233,2.997,22.898
	c0.316,3.702,0.66,7.494,0.414,11.206c-0.199,3.014-0.738,6.744-0.327,9.28c1.812-0.72,3.294-2.363,4.41-3.824
	c2.394-3.156,3.944-6.765,4.714-10.503c0.278-1.603,0.582-3.281,0.604-4.98C298.209,372.97,293.501,361.559,284.642,354.696z"/>
<g>
	<path fill="#FFFFFF" d="M344.464,328.785c6.424-3.168,7.019-24.928,2.758-31.466c-8.725,5.526-18.987,10.012-30.362,13.155
		C317.271,317.528,337.554,332.193,344.464,328.785z"/>
	<path fill="#FFFFFF" d="M223.783,332.948c6.959,2.594,24.584-12.769,25.577-20.204c-11.479-2.277-22.168-5.873-31.634-10.537
		C214.362,309.428,217.162,330.476,223.783,332.948z"/>
	<path fill="#FFFFFF" d="M325.582,209.447c-11.914-25.095-41.92-35.781-67.017-23.87c-25.094,11.917-35.786,41.922-23.873,67.021
		c11.916,25.098,41.921,35.782,67.019,23.864C326.806,264.551,337.491,234.551,325.582,209.447z M239.977,255.775
		c-12.858-19.25-3.337-45.58,2.603-52.728c5.934-7.154,21.182-17.919,26.395-17.706c-16.704,7.566-33.955,40.3-15.614,67.766
		c9.366,14.029,23.656,24.286,36.175,24.793C273.822,279.906,252.83,275.033,239.977,255.775z M286.09,267.236
		c-10.896,0-19.76-8.137-19.76-18.14c0-10.006,8.863-18.144,19.76-18.144c10.896,0,19.759,8.138,19.759,18.144
		C305.85,259.099,296.986,267.236,286.09,267.236z"/>
	<path fill="#FFFFFF" d="M282.193,253.121c-0.785-1.688-3.946-1.878-7.053-0.426c-0.981,0.458-1.839,1.025-2.53,1.639
		c-1.502,1.335-2.214,2.894-1.674,4.05c0.679,1.456,3.115,1.795,5.764,0.936c0.429-0.14,0.863-0.306,1.295-0.509
		C281.108,257.355,282.982,254.811,282.193,253.121z"/>
	<path fill="#FFFFFF" d="M302.285,242.63c-0.715-2.612-3.592-4.134-6.612-3.601c-0.216,0.038-0.433,0.085-0.649,0.145
		c-3.238,0.889-5.244,3.88-4.475,6.68c0.769,2.802,4.021,4.352,7.262,3.462c1.127-0.31,2.098-0.876,2.862-1.596
		C302.107,246.367,302.791,244.459,302.285,242.63z"/>
</g>
<path fill="#BE232F" d="M311.235,339.646c-21.985-11.417-20.236,8.489-25.705,11.71c-2.533,1.494-6.788-7.685-9.365-10.498
	c-13.775-15.027-28.738-5.13-33.433,10.729c-4.306,14.557-2.663,32.273,2.849,46.305c2.399,6.109,6.633,13.779,12.283,17.561
	c14.915,9.981,35.25,10.963,49.981,0.309c11.783-8.524,20.854-20.776,21.362-35.701C329.659,366.886,324.13,346.341,311.235,339.646
	z M281.354,419.49c-19.219-4.11-27.772-11.028-32.588-25.974c-4.631-14.372-2.221-33.976,0.865-48.559
	c1.135-5.367,9.339-3.091,8.206,2.263c-2.611,12.341-3.7,25.815-0.012,38.064c3.891,12.92,12.916,21.944,25.791,25.998
	C288.832,412.926,286.735,420.641,281.354,419.49z M287.755,402.632c-0.411-2.536,0.128-6.267,0.327-9.28
	c0.246-3.712-0.097-7.504-0.414-11.206c-0.66-7.665-1.928-15.274-2.997-22.898c-0.135-0.97-0.219-1.851-0.34-2.59
	c-0.114-0.732-0.145-1.332-0.189-1.731c-0.036-0.404-0.037-0.625-0.037-0.625s0.196,0.134,0.536,0.396
	c8.859,6.862,13.567,18.273,12.84,28.628c-0.021,1.699-0.325,3.378-0.604,4.98c-0.77,3.738-2.32,7.347-4.714,10.503
	C291.049,400.269,289.566,401.912,287.755,402.632z M305.288,413.346c-2.444,2.307-5.573,3.393-8.906,3.458
	c-2.319,0.045-4.255-1.971-4.255-4.255c0-2.354,1.937-4.21,4.255-4.256c0.249,0,0.497-0.01,0.745-0.029
	c0.021-0.004,0.031-0.006,0.057-0.011c0.374-0.084,0.751-0.166,1.112-0.298c0.024-0.009,0.032-0.013,0.054-0.021
	c0.215-0.108,0.425-0.226,0.629-0.354c0.041-0.027,0.072-0.048,0.105-0.069c0.043-0.044,0.1-0.102,0.188-0.184
	c1.685-1.59,4.342-1.675,6.017,0C306.892,408.931,306.975,411.755,305.288,413.346z"/>
<g>
	<path fill="#C081B6" d="M372.449,260.197c-13.819-8.827-53.459,28.035-62.566,33.5c-8.09,4.857-18.173,8.165-27.663,8.359
		c-17.607,0.355-32.94-9.236-47.273-18.501c-12.878-8.323-27.093-19.769-43.035-20.271c-13.354-0.424-14.436,12.59-14.244,22.42
		c1.041,53.314,31.646,75.344,62.954,90.87c-0.417-4.579-0.448-9.198-0.021-13.698c-22.166-16.199-37.949-41.438-40.083-62.519
		c-0.305-3.016-0.324-5.99-0.086-8.91c5.128,4.018,10.938,7.627,17.296,10.76c9.466,4.664,20.155,8.26,31.634,10.537
		c10.94,2.172,22.595,3.151,34.604,2.705c11.66-0.43,22.721-2.166,32.895-4.975c11.375-3.144,21.638-7.629,30.362-13.155
		c5.603-3.546,10.575-7.519,14.809-11.836c0.829,2.879,1.409,5.833,1.714,8.851c2.41,23.778-12.123,54.121-36.014,71.405
		c1.144,5.065,1.624,10.075,1.478,14.321c-0.004,0.156-0.015,0.311-0.021,0.466c30.076-21.003,46.93-64.845,48.021-106.245
		C377.411,266.601,375.602,262.21,372.449,260.197z"/>
	<path fill="#C081B6" d="M208.513,184.778c-9.271,16.76-22.939,31.322-38.919,42.253c12.102,5.037,22.55,6.203,22.55,6.203
		s12.626-4.162,24.093-21.042c6.072-8.957,8.833-22.537,8.833-22.537S218.125,189.047,208.513,184.778z"/>
	<path fill="#C081B6" d="M364.882,184.778c9.271,16.76,22.938,31.322,38.92,42.253c-12.103,5.037-22.55,6.203-22.55,6.203
		s-12.626-4.162-24.095-21.042c-6.072-8.957-8.832-22.537-8.832-22.537S355.271,189.047,364.882,184.778z"/>
	<path fill="#C081B6" d="M176.988,159.334c-14.029,8.063-30.282,13.047-46.274,16.883c1.498,7.321,3.508,14.321,6.112,20.685
		c4.331,10.594,11.973,18.155,20.214,23.543c16.806-10.134,31.138-24.642,40.516-41.667
		C190.812,174.33,183.625,168.087,176.988,159.334z M155.75,211.907c-10.418-6.842-17.86-17.998-18.858-30.546
		c-0.436-5.475,8.078-5.433,8.51,0c0.747,9.394,6.902,18.114,14.643,23.198C164.611,207.557,160.352,214.929,155.75,211.907z"/>
	<path fill="#C081B6" d="M396.408,159.334c-6.638,8.753-13.826,14.996-20.567,19.444c9.377,17.025,23.708,31.533,40.515,41.667
		c8.242-5.388,15.883-12.95,20.215-23.543c2.604-6.363,4.615-13.363,6.111-20.685C426.69,172.381,410.438,167.396,396.408,159.334z
		 M433.599,184.42c-3.092,12.245-9.658,21.566-21.191,27.026c-4.932,2.335-9.253-5-4.295-7.348
		c9.666-4.577,14.678-11.629,17.28-21.94C426.736,176.84,434.942,179.097,433.599,184.42z"/>
	<path fill="#C081B6" d="M150.276,73.57c-10.577,0.151-18.613,19.793-21.638,45.071c11.083-3.05,22.014-6.607,32.728-10.848
		C159.937,88.766,160.036,73.43,150.276,73.57z M150.118,87.41c-5.617,4.112-6.66,13.53-6.739,19.917
		c-0.067,5.484-8.578,5.49-8.51,0c0.123-9.888,2.565-21.124,10.954-27.265C150.259,76.814,154.497,84.204,150.118,87.41z"/>
	<path fill="#C081B6" d="M423.119,73.57c-9.761-0.141-9.659,15.195-11.089,34.223c10.712,4.241,21.645,7.798,32.727,10.848
		C441.731,93.364,433.697,73.721,423.119,73.57z M427.678,107.6c-0.161-8.05-3.554-15.147-6.697-22.434
		c-2.149-4.983,5.18-9.322,7.349-4.295c3.768,8.733,7.665,17.076,7.858,26.729C436.297,113.091,427.787,113.08,427.678,107.6z"/>
</g>
<path fill="#A2CB9A" d="M514.61,293.814c-2.905,0.432-17.524,3.039-11.999-3.943c3.722-4.712,36.839-8.8,24.807-22.158
	c-3.704-4.121-12.81,3.79-17.125,5.296c-9.303,3.255-18.082,8.357-27.603,10.947c-16.77,4.557-34.818,0.635-51.966-2.341
	c4.698,0.029,9.346-0.398,12.048-4.141c-2.467-1.677-6.573-1.791-9.424-3.157c-3.329-1.59-5.276-4.867-7.684-7.318
	c1.578-0.245,3.23-0.871,4.672-1.503c1.942-0.845,3.612-2.159,4.101-4.115c-2.659,0.477-6.477-0.722-8.761-1.916
	c-3.344-1.747-6.51-4.669-7.81-7.954c-2.201-5.591,4.583-2.417,7.365-1.665c2.633,0.71,5.524,1.493,8.305,1.194
	c-0.156-2.341-2.33-4.403-3.398-6.492c-1.724-3.358-3.459-6.732-5.809-9.789c-1.715-2.241-7.21-7.266-12.305-11.707
	c-2.759,1.536-5.53,2.856-8.224,3.977c-12.103,5.037-22.55,6.203-22.55,6.203s-12.626-4.162-24.095-21.042
	c-6.072-8.957-8.832-22.537-8.832-22.537s6.945-0.607,16.557-4.876c3.385-1.502,7.097-3.453,10.959-6
	c2.064-1.362,4.17-2.894,6.289-4.613c-17.161-12.498-40.834-18.751-61.491-18.608c1.385-0.007,4.544-5.292,5.915-6.08
	c1.327-0.768,10.101-2.962,10.101-2.962s-5.302-2.405-6.498-2.759c-3.052-0.902-5.389-0.895-8.49-0.421
	c-3.217,0.483-6.361,1.389-9.539,1.881c-1.389-3.479,1.108-6.565,4.182-8.498c1.824-1.14,3.817-2.022,5.798-2.921
	c0.998-0.46,3.403-2.167,4.486-2.181c-3.542,0.077-7.09-0.476-10.646-0.407c-7.816,0.158-15.346,2.58-22.311,5.535
	c0.496-2.307,1.383-4.655,2.203-6.893c0.578-1.619,2.504-8.792,4.162-9.503c-3.77,1.62-6.785,4.323-10.087,6.548
	c-3.339,2.25-6.698,4.777-8.692,8.114c-1.108,1.85-2.406,3.817-3.69,5.523c2.955-3.93-20.108-24.628-23.78-26.176
	c-4.055-1.71,0,0-12.794-3.448c6.938,4.958,11.357,31.669,11.357,31.669s-4.473-6.599-7.162-7.833
	c-3.917-1.798-7.114-6.814-23.032-3.495c2.909,2.552,10.556,6.614,12.23,9.927c0.841,1.67,2.658,5.361,2.431,7.137
	c0.047-0.386-16.509,5.627-25.541,9.044c-2.704,1.022-4.734,1.813-5.44,2.129c-7.036,3.147-14.021,5.405-20.601,9.233
	c4.135,4.094,8.324,7.4,12.354,10.058c3.861,2.547,7.573,4.498,10.958,6c9.612,4.269,16.557,4.876,16.557,4.876
	s-2.761,13.581-8.833,22.537c-11.467,16.881-24.093,21.042-24.093,21.042s-9.338-1.043-20.582-5.413
	c-3.452,2.024-7.566,3.338-11.7,3.475c-1.077,0.024-9.097,0.128-9.539-0.402c2.1,2.511,5.986,5.451,9.525,6.194
	c1.518,0.322,6.439-0.366,7.021,1.34c0.535,1.577-3.991,4.272-5.158,5.174c-3.189,2.473-9.265,5.093-13.622,5.03
	c-2.961-0.041-5.991-2.553-8.654-3.52c0.703,1.341,1.425,2.717,2.277,3.992c2.062,3.069,2.549,4.668,6.195,5.954
	c5.336,1.875,10.583,3.575,16.119,4.906c-5.865,3.346-10.796,6.076-14.139,11.723c-1.645,2.783-2.91,5.746-4.934,8.346
	c-1.143,1.477-2.876,2.759-4.224,4.117c-0.854,0.86-8.713,5.328-9.819,4.535c0.326,0.233,0.648,0.461,0.969,0.685
	c-13.767,2.336-27.808,4.026-41.051,0.427c-9.522-2.589-18.3-7.692-27.603-10.947c-4.314-1.505-13.419-9.419-17.126-5.295
	C34.068,286.91,67.185,291,70.904,295.71c5.53,6.983-9.092,4.372-11.994,3.94c-5.181-0.765-25.657-5.946-24.063,4.129
	c1.949,12.32,16.862,9.831,25.145,8.521c1.728-0.281,11.28-2.947,12.466-1.865c8.156,7.377-8.355,12.387-13.139,14.031
	c-3.115,1.069-9.338,4.923-9.799,8.291c-0.276,2.082,4.025,6.86,5.899,7.525c4.544,1.615,8.787-1.932,12.724-4.009
	c4.892-2.583,10.74-9.456,15.836-11.692c25.591-11.223-13.031,28.216,15.839,21.479c12.755-2.979,5.261-28.282,23.572-34.692
	c5.999-2.098,13.79-3.43,21.816-4.339c-6.253,6.729-18.022,12.748-17.197,22.119c1.38-0.152,14.834-2.133,14.933-2.524
	c-1.718,5.662-3.811,13.716-9.188,17.609c-1.592,1.151-3.743,2.335-4.931,3.782c2.749,0.4,22.921-2.362,23.59-0.404
	c1.113,3.276,0.027,10.173-1.447,13.34c-0.8,1.711-2.017,3.138-3.868,4.066c-1.33,0.653-5.602,1.918-7.025,0.982
	c3.296,2.185,5.4,3.511,9.691,2.825c3.564-0.572,6.82-2.068,10.153-3.213c1.478-0.511,9.637-3.378,9.637-5.008
	c0,3.777,0,7.562,0,11.341c0,3.067-3.506,6.922-4.23,10.043c-0.13,0.568-0.252,7.331,0.109,7.202
	c2.057-0.719,3.82-2.487,5.766-3.529c2.718-1.476,5.9-1.882,9.004-1.741c-0.745,4.04-1.511,8.978-4.014,12.504
	c-1.233,1.737-3.738,3.321-5.43,4.732c3.533,0.056,7.208,0.044,10.552-1.1c3.577-1.215,6.787-3.304,10.196-4.709
	c1.67-0.691,7.146-1.081,8.133-2.302c-3.133,3.902-4.581,10.685-4.156,15.399c0.056,0.582,2.169,7.336,2.938,6.781
	c5.41-3.933,10.995-7.621,16.57-11.38c-0.082,3.896-0.491,7.804-0.573,11.714c-0.06,3.214,0.629,7.917,2.413,10.737
	c1.653-1.073,3.314-2.514,4.72-3.871c2.035-1.966,4.158-3.884,6.7-5.357c0.968-0.561,7.982-2.826,8.144-3.415
	c-0.811,2.86,1.697,7.175,2.782,9.837c1.084,2.654,2.035,5.843,3.813,8.232c1.191-0.71,10.582-11.631,10.76-11.476
	c0.881,0.713,5.79,4.901,9.997,8.341c-0.061,0.192-0.12,0.383-0.181,0.576c-1.338,4.235-2.728,15.971-6.53,18.832
	c-0.116,0.09-0.246,0.173-0.364,0.239c-4,2.303-14.775-1.274-19.345-1.672c-13.746-1.209-27.333-2.916-40.603,2.18
	c-7.898,3.03-19.452,8.723-19.845,18.883c-0.216,5.637,5.947,9.093,10.636,9.172c2.292,0.041,8.435,0.163,10.377-1.047
	c-0.006,0-6.397,3.998-6.397,3.998s-3.864,4.627-4.002,4.799c-4.698,5.635,2.149,12.825,6.957,14.501
	c7.148,2.502,16.519-1.629,22.644-4.898c-2.972,1.585-4.152,13.38-2.225,14.988c14.047,11.692,34.871-6.831,44.566-15.75
	c8.385-7.717,17.285-15.225,22.176-25.782c0.311-0.672,0.602-1.351,0.876-2.034c0.275,0.687,0.565,1.367,0.877,2.038
	c4.897,10.559,13.797,18.059,22.178,25.78c9.698,8.923,30.524,27.44,44.573,15.745c1.927-1.613,0.742-13.403-2.223-14.98
	c6.124,3.263,15.494,7.396,22.642,4.897c4.804-1.677,11.649-8.868,6.954-14.506c-0.139-0.17-3.999-4.796-3.999-4.796l-6.397-4.002
	c1.942,1.214,8.076,1.09,10.373,1.048c4.69-0.078,10.85-3.534,10.633-9.172c-0.391-10.157-11.941-15.848-19.848-18.883
	c-13.262-5.091-26.855-3.388-40.597-2.186c-4.573,0.404-15.343,3.981-19.34,1.684c-0.125-0.076-0.253-0.159-0.376-0.247
	c-3.438-2.589-4.899-12.46-6.145-17.446c0.256-0.114,0.512-0.229,0.766-0.341c2.564-1.125,5.174-2.3,7.627-3.611
	c3.722-1.986,5.053-5.821,8.346-7.966c0.889,2.25-0.061,5.537-0.621,7.823c-0.391,1.593-1.646,6.276-3.422,7.168
	c5.266-2.649,11.282-6.828,17.009-8.396c0.582,2.579-0.497,6.088-1.18,8.655c-0.252,0.966-1.108,5.928-2.058,6.422
	c2.432-1.282,5.017-3.534,6.599-5.642c2.472-3.292,4.921-16.314,11.993-14.884c1.884,0.376,2.372,6.246,2.884,7.943
	c1.206,4.023,3.137,6.039,5.901,9.137c-0.28-0.305,1.339-3.844,1.48-4.32c0.674-2.287,0.596-4.548,0.843-6.888
	c0.351-3.358,4.218-8.478,6.946-10.793c3.172,2.693,5.803,7.462,10.659,8.076c-0.491-2.002-0.399-4.081-0.343-6.113
	c0.089-2.941,0.733-5.875,1.984-8.597c3.624,1.049,6.167,3.414,8.847,5.67c2.467,2.058,5.824,2.896,8.87,4.029
	c-1.616-1.541-1.742-4.029-2.575-5.943c-1.563-3.6-3.168-7.282-3.341-11.179c-0.075-1.795,0.233-3.5,1.003-5.151
	c0.315-0.691,2.306-2.968,1.867-3.659c1.266,1.966,5.916,2.866,8.19,3.603c1.631,0.525,8.258,1.465,9.219,2.645
	c-3.777-4.638-7.283-8.042-7.968-14.021c-0.341-2.977-0.21-5.972,0.065-8.95c0.166-1.863,1.717-5.918,1.001-7.611
	c3.542,8.309,25.667,7.672,25.667,7.672s-4.759-5.521-9.378-10.17c-1.912-1.926-4.332-12.051-3.963-14.894
	c0.336-2.567,2.485-4.655,3.575-6.977c-0.407,0.866,4.762,6.143,5.307,7.264c1.879,3.876,1.861,8.613,2.681,12.75
	c6.159-11.141,5.647-30.125-6.943-38.043c5.224,3.284,13.734,1.867,19.45,0.562c0.873-0.204,5.336-1.885,5.87-1.551
	c-0.016-0.013-7.954-4.915-9.35-6.433c-2.509-2.697-4.26-5.921-5.771-9.123c-1.224-2.586-2.511-5.164-3.672-7.781
	c8.877,0.91,17.66,2.293,24.27,4.607c18.312,6.404,10.817,31.708,23.571,34.685c28.872,6.737-9.754-32.7,15.837-21.479
	c5.103,2.244,10.943,9.117,15.839,11.693c3.938,2.076,8.178,5.634,12.72,4.008c1.872-0.663,6.177-5.438,5.898-7.521
	c-0.457-3.373-6.676-7.227-9.796-8.296c-4.781-1.643-21.295-6.654-13.14-14.031c1.191-1.082,10.742,1.586,12.469,1.871
	c8.281,1.313,23.195,3.794,25.142-8.523C540.267,287.866,519.79,293.047,514.61,293.814z M254.937,177.936
	c7.958-3.775,16.421-5.69,25.161-5.69c10.961,0,21.695,3.058,31.034,8.844c9.591,5.941,17.23,14.493,22.092,24.73
	c13.894,29.277,1.381,64.396-27.887,78.286c-7.955,3.78-16.422,5.695-25.167,5.695c0,0,0,0-0.002,0
	c-10.962,0-21.689-3.058-31.029-8.844c-9.59-5.939-17.228-14.493-22.086-24.729C213.155,226.958,225.669,191.836,254.937,177.936z
	 M377.207,274.282c-0.874,33.163-11.871,67.88-31.668,91.183l-0.002,0.021l-0.048,0.039c-4.904,5.764-10.339,10.837-16.303,15.002
	c0.007-0.155,0.018-0.31,0.021-0.466c-0.508,14.925-9.579,27.177-21.362,35.701c-2.851,2.062-5.912,3.682-9.104,4.893v0.002
	c0,0-0.002-0.001-0.002-0.002c-13.296,5.04-28.847,2.849-40.875-5.201c-5.65-3.781-9.884-11.451-12.283-17.561
	c-2.568-6.536-4.282-13.874-4.96-21.318c-31.308-15.525-61.913-37.556-62.954-90.87c-0.192-9.83,0.891-22.844,14.244-22.42
	c15.942,0.502,30.157,11.948,43.035,20.271c14.333,9.265,29.666,18.856,47.273,18.501c9.49-0.194,19.573-3.502,27.663-8.359
	c9.107-5.465,48.747-42.327,62.566-33.5C375.602,262.21,377.411,266.601,377.207,274.282z"/>
<g>
	<path fill="#DE556C" d="M296.382,416.804c3.333-0.065,6.462-1.151,8.906-3.458c1.687-1.591,1.604-4.415,0-6.019
		c-1.675-1.675-4.332-1.59-6.017,0c-0.861,0.813,0.695-0.41-0.293,0.253c-0.211,0.134-0.428,0.256-0.65,0.368
		c0.445-0.167,0.434-0.164-0.032,0.007c-0.361,0.132-0.738,0.214-1.112,0.298c-0.501,0.089-0.508,0.092-0.022,0.01
		c-0.259,0.021-0.519,0.03-0.779,0.03c-2.318,0.046-4.255,1.901-4.255,4.256C292.127,414.833,294.063,416.849,296.382,416.804
		L296.382,416.804z"/>
	<path fill="#DE556C" d="M249.631,344.958c-3.086,14.583-5.497,34.187-0.865,48.559c4.816,14.945,13.37,21.863,32.588,25.974
		c5.381,1.15,7.478-6.564,2.262-8.207c-12.875-4.054-21.9-13.078-25.791-25.998c-3.688-12.249-2.6-25.724,0.012-38.064
		C258.97,341.867,250.766,339.591,249.631,344.958L249.631,344.958z"/>
</g>
</svg>
